<?xml version="1.0" encoding="UTF-8"?>
<svg xmlns="http://www.w3.org/2000/svg" xmlns:xlink="http://www.w3.org/1999/xlink" viewBox="0 0 260.4 320.37">
  <defs>
    <style>
      .cls-1 {
        font-size: 4.5px;
      }

      .cls-1, .cls-2, .cls-3, .cls-4, .cls-5, .cls-6 {
        fill: #d58e92;
      }

      .cls-1, .cls-4, .cls-5, .cls-7, .cls-6 {
        font-family: ABeeZee-Regular, ABeeZee;
      }

      .cls-8 {
        fill: url(#Degradado_sin_nombre_5);
      }

      .cls-9 {
        letter-spacing: -.01em;
      }

      .cls-10 {
        letter-spacing: -.02em;
      }

      .cls-11 {
        letter-spacing: -.01em;
      }

      .cls-12 {
        fill: url(#Degradado_sin_nombre_11);
      }

      .cls-2 {
        fill-rule: evenodd;
      }

      .cls-13 {
        letter-spacing: -.02em;
      }

      .cls-14 {
        letter-spacing: -.01em;
      }

      .cls-15 {
        letter-spacing: -.06em;
      }

      .cls-16 {
        letter-spacing: -.02em;
      }

      .cls-17, .cls-18 {
        fill: none;
      }

      .cls-19 {
        letter-spacing: 0em;
      }

      .cls-20 {
        letter-spacing: -.03em;
      }

      .cls-21 {
        letter-spacing: -.01em;
      }

      .cls-22 {
        fill: url(#Degradado_sin_nombre_11-2);
      }

      .cls-4 {
        font-size: 7.92px;
      }

      .cls-23 {
        letter-spacing: -.01em;
      }

      .cls-24 {
        letter-spacing: 0em;
      }

      .cls-18 {
        stroke: #d58e92;
        stroke-miterlimit: 10;
        stroke-width: .5px;
      }

      .cls-25 {
        letter-spacing: 0em;
      }

      .cls-5 {
        font-size: 5px;
      }

      .cls-7 {
        fill: #d77b84;
        font-size: 15px;
      }

      .cls-26 {
        letter-spacing: -.01em;
      }

      .cls-27 {
        letter-spacing: 0em;
      }

      .cls-28 {
        letter-spacing: -.02em;
      }

      .cls-29 {
        letter-spacing: -.01em;
      }

      .cls-30 {
        opacity: .28;
      }

      .cls-31 {
        fill: url(#Degradado_sin_nombre_5-2);
      }

      .cls-32 {
        clip-path: url(#clippath);
      }

      .cls-33 {
        fill: #f9e8e8;
      }

      .cls-34 {
        fill: #f4b3c2;
      }

      .cls-6 {
        font-size: 14px;
      }
    </style>
    <linearGradient id="Degradado_sin_nombre_5" data-name="Degradado sin nombre 5" x1="103.38" y1="208.64" x2="141.52" y2="241.57" gradientUnits="userSpaceOnUse">
      <stop offset="0" stop-color="#d58e92"/>
      <stop offset="1" stop-color="#bb5e64"/>
    </linearGradient>
    <linearGradient id="Degradado_sin_nombre_11" data-name="Degradado sin nombre 11" x1="107.94" y1="207.15" x2="145.22" y2="238.29" gradientUnits="userSpaceOnUse">
      <stop offset="0" stop-color="#d58e92"/>
      <stop offset="1" stop-color="#bb5e64"/>
    </linearGradient>
    <clipPath id="clippath">
      <rect class="cls-17" x="148.86" y="14.33" width="92.08" height="127.24"/>
    </clipPath>
    <linearGradient id="Degradado_sin_nombre_5-2" data-name="Degradado sin nombre 5" x1="173.34" y1="44.47" x2="247.41" y2="108.41" xlink:href="#Degradado_sin_nombre_5"/>
    <linearGradient id="Degradado_sin_nombre_11-2" data-name="Degradado sin nombre 11" x1="182.19" y1="41.57" x2="254.6" y2="102.04" xlink:href="#Degradado_sin_nombre_11"/>
  </defs>
  <g id="Capa_2" data-name="Capa 2">
    <rect class="cls-34" y="164.46" width="240.94" height="155.91" rx="5.66" ry="5.66"/>
    <g>
      <text id="Texto_Elibeth_Villalobos" data-name="Texto Elibeth Villalobos" class="cls-7" transform="translate(43.26 285.15)"><tspan x="0" y="0">Od. </tspan><tspan class="cls-28" x="29.61" y="0">E</tspan><tspan x="37.63" y="0">libeth Vi</tspan><tspan class="cls-27" x="96.33" y="0">l</tspan><tspan class="cls-26" x="101.37" y="0">l</tspan><tspan x="106.33" y="0">a</tspan><tspan class="cls-26" x="115.59" y="0">l</tspan><tspan x="120.55" y="0">obos</tspan></text>
      <g id="Logo_Principal" data-name="Logo Principal">
        <path class="cls-8" d="M126.71,241.85s-3.83-6.82-10.66,2.26c0,0-3.12,3.69-6.32,9.52-.41.75-.61,1.13-.98,1.68-.1.15-1.01,1.78-2.43.19,0,0-6.19-6.06-9.27-14.13,0,0-2.53-4.34-4.03-16.01,0,0-1.73-15.52,3.36-24.3,1.71-2.94,3.95-3.4,7.35-3.36,3.01.04,4.47.18,8.79,1.91,0,0,8.38,3.72,14.84-.73,0,0,8.51-6.85,15.75-.28,0,0-6.91-5.31-14.79.98,0,0-4.62,4.81-15.4,1.82,0,0-12.27-5-14.79.29,0,0-9.47,12.96.51,39.79,0,0,5.16,11.2,8.66,13.62.13.09.3.05.38-.08.95-1.69,6.83-11.74,10.47-14.6,0,0,5.56-4.69,8.55,1.44Z"/>
        <path class="cls-12" d="M146.59,201.87c.23,1.19,5.37,27.56-14.27,52.31,0,0,.71-29.07.02-36.53,0-.06,0-.11-.02-.17-.03-.23-.16-.42-.34-.56-.25-.16-.48-.23-.73-.23h-.05c-.6,0-2.76,2-9.28,7.82-.74.67-1.5,1.18-1.88,1.44-.2.16-.36.23-.5.23s-.22-.14-.22-.42,1.27-2.39,2.26-4.08c.99-1.69,1.33-2.31,1.29-3.07-.05-.82-.5-.95-.81-.95-.67,0-.6-.05-2.28,1.27l-.02.03s-.06.05-.09.08c-2.68,2.31-5.55,4.37-8.62,6.19-1.6.92-3.07,1.37-4.45,1.37s-2.06-.65-2.06-1.97v-.59c6.1-3.71,8.35-5.88,8.55-8.07,0-1.12-.51-1.77-1.49-1.68-.5.05-2.06.05-4.79,2.67-2.13,2.05-3.09,4.33-3.41,6.45-2.39,1.13-3.38,3.57-3.68,5.93-.34,2.76.23,5.83,1.3,8.39.76,1.8,1.44,2.44,1.6,2.56-.73-.81-1.13-2.59-1.13-2.59-2.68-10.36.74-12.69,1.8-13.14-.03.2-.03.42-.03.62,0,1.75.88,2.64,2.68,2.64,2.23,0,3.38-.47,6.13-2.17,2.47-1.55,5.32-3.61,8.89-6.51.02-.02.03-.02.03-.02.14-.09.28-.16.42-.12.14.03.09.28.05.47-.05.17-.67,1.47-2.03,3.88-1.35,2.42-2.02,3.77-2.02,4.06s.08.57.26.81c.17.23.43.36.78.36s.56-.23,1.29-.87c5.77-5.01,7.52-6.87,8.67-7.83.36-.31,2.14-1.94,2.56-1.74l.22,36.93c1.24,1.24,2.7-.59,2.7-.59,2-2.71,5.82-9.4,7.37-12.18.45-.81.87-1.61,1.23-2.47,1.8-4.2,3.24-8.3,4.08-11.35.57-2.17.98-4.41,1.19-6.64,1.4-14.92-.88-19.5-1.16-19.96ZM107.58,217.58c1.36-1.47,2.5-2.2,3.37-2.2.43,0,.67.26.67.81s-.42,1.86-1.74,3.16c-1.32,1.29-3.16,2.37-5.07,3.52.48-1.86,1.4-3.82,2.78-5.29Z"/>
      </g>
    </g>
  </g>
  <g id="Capa_1" data-name="Capa 1">
    <g>
      <rect class="cls-33" width="240.94" height="155.91" rx="5.66" ry="5.66"/>
      <g>
        <text class="cls-6" transform="translate(14.26 24.89)"><tspan class="cls-16" x="0" y="0">E</tspan><tspan x="7.49" y="0">libeth Vi</tspan><tspan class="cls-29" x="62.27" y="0">l</tspan><tspan class="cls-14" x="66.98" y="0">l</tspan><tspan class="cls-24" x="71.61" y="0">a</tspan><tspan class="cls-23" x="80.25" y="0">l</tspan><tspan class="cls-24" x="84.88" y="0">obos</tspan></text>
        <text class="cls-4" transform="translate(15.22 32.73)"><tspan x="0" y="0">O</tspan><tspan class="cls-19" x="6.03" y="0">d</tspan><tspan x="10.81" y="0">on</tspan><tspan class="cls-10" x="20.24" y="0">t</tspan><tspan x="23.22" y="0">รณ</tspan><tspan class="cls-21" x="27.96" y="0">l</tspan><tspan x="30.58" y="0">oga</tspan></text>
      </g>
      <g>
        <g>
          <rect class="cls-33" x="11.21" y="97.53" width="47.77" height="47.77"/>
          <path class="cls-3" d="M29.74,103.83v-.57c0,.32-.26.57-.57.57"/>
          <path class="cls-3" d="M30.7,102.31h-.38c-.32,0-.57.26-.57.57v.96h1.53v-.96c0-.32-.26-.57-.57-.57Z"/>
          <path class="cls-3" d="M37.38,103.83v-.57c0,.32-.26.57-.57.57"/>
          <path class="cls-3" d="M38.34,102.31h-.38c-.32,0-.57.26-.57.57v.96h1.53v-.96c0-.32-.26-.57-.57-.57Z"/>
          <rect class="cls-3" x="40.44" y="102.31" width="1.53" height="1.53" rx=".45" ry=".45"/>
          <path class="cls-3" d="M28.21,104.41v.38c0,.32.26.57.57.57h.96v-1.53h-.96c-.32,0-.57.26-.57.57Z"/>
          <rect class="cls-3" x="29.74" y="103.83" width="1.53" height="1.53"/>
          <path class="cls-3" d="M32.8,105.36v-.57c0,.32-.26.57-.57.57"/>
          <path class="cls-3" d="M31.84,105.36c-.32,0-.57-.26-.57-.57v.57"/>
          <path class="cls-3" d="M34.33,103.83h-.96c-.32,0-.57.26-.57.57v.96h1.53v-1.53Z"/>
          <rect class="cls-3" x="34.33" y="103.83" width="1.53" height="1.53"/>
          <rect class="cls-3" x="35.85" y="103.83" width="1.53" height="1.53"/>
          <path class="cls-3" d="M38.34,105.36h-.96v-1.53h1.53v.96c0,.32-.26.57-.57.57Z"/>
          <path class="cls-3" d="M29.17,105.36c.32,0,.57.26.57.57v-.57"/>
          <path class="cls-3" d="M29.74,106.89v-.57c0,.32-.26.57-.57.57"/>
          <rect class="cls-3" x="29.74" y="105.36" width="1.53" height="1.53"/>
          <rect class="cls-3" x="31.27" y="105.36" width="1.53" height="1.53"/>
          <rect class="cls-3" x="32.8" y="105.36" width="1.53" height="1.53"/>
          <path class="cls-3" d="M34.33,105.36v.57c0-.32.26-.57.57-.57"/>
          <path class="cls-3" d="M28.21,107.46v.38c0,.32.26.57.57.57h.96v-1.53h-.96c-.32,0-.57.26-.57.57Z"/>
          <path class="cls-3" d="M30.7,108.42h-.96v-1.53h1.53v.96c0,.32-.26.57-.57.57Z"/>
          <path class="cls-3" d="M31.27,106.89v.57c0-.32.26-.57.57-.57"/>
          <path class="cls-3" d="M32.22,106.89c.32,0,.57.26.57.57v-.57"/>
          <path class="cls-3" d="M32.8,107.46v.38c0,.32.26.57.57.57h.38c.32,0,.57-.26.57-.57v-.96h-1.53v.57Z"/>
          <rect class="cls-3" x="35.85" y="106.89" width="1.53" height="1.53" rx=".45" ry=".45"/>
          <path class="cls-3" d="M40.44,106.89h-.96c-.32,0-.57.26-.57.57v.96h1.53v-1.53Z"/>
          <path class="cls-3" d="M40.44,106.89h.96c.32,0,.57.26.57.57v.96h-1.53v-1.53Z"/>
          <path class="cls-3" d="M32.22,108.42h-.38c-.32,0-.57.26-.57.57v.96h1.53v-.96c0-.32-.26-.57-.57-.57Z"/>
          <rect class="cls-3" x="34.33" y="108.42" width="1.53" height="1.53" rx=".45" ry=".45"/>
          <path class="cls-3" d="M38.91,109.95v-.57c0,.32-.26.57-.57.57"/>
          <rect class="cls-3" x="38.91" y="108.42" width="1.53" height="1.53"/>
          <path class="cls-3" d="M41.4,109.95h-.96v-1.53h1.53v.96c0,.32-.26.57-.57.57Z"/>
          <path class="cls-3" d="M29.17,109.95h-.38c-.32,0-.57.26-.57.57v.96h1.53v-.96c0-.32-.26-.57-.57-.57Z"/>
          <rect class="cls-3" x="31.27" y="109.95" width="1.53" height="1.53"/>
          <path class="cls-3" d="M35.85,110.52v.38c0,.32.26.57.57.57h.96v-1.53h-.96c-.32,0-.57.26-.57.57Z"/>
          <rect class="cls-3" x="37.38" y="109.95" width="1.53" height="1.53"/>
          <path class="cls-3" d="M39.87,111.48h-.96v-1.53h1.53v.96c0,.32-.26.57-.57.57Z"/>
          <path class="cls-3" d="M40.44,109.95v.57c0-.32.26-.57.57-.57"/>
          <path class="cls-3" d="M28.21,112.05v.38c0,.32.26.57.57.57h.38c.32,0,.57-.26.57-.57v-.96h-1.53v.57Z"/>
          <path class="cls-3" d="M31.27,112.05v.38c0,.32.26.57.57.57h.38c.32,0,.57-.26.57-.57v-.96h-1.53v.57Z"/>
          <path class="cls-3" d="M35.28,111.48h-.38c-.32,0-.57.26-.57.57v.96h1.53v-.96c0-.32-.26-.57-.57-.57Z"/>
          <path class="cls-3" d="M36.81,111.48c.32,0,.57.26.57.57v-.57"/>
          <path class="cls-3" d="M37.38,112.05v.38c0,.32.26.57.57.57h.38c.32,0,.57-.26.57-.57v-.96h-1.53v.57Z"/>
          <path class="cls-3" d="M38.91,111.48v.57c0-.32.26-.57.57-.57"/>
          <path class="cls-3" d="M41.4,111.48h-.38c-.32,0-.57.26-.57.57v.96h1.53v-.96c0-.32-.26-.57-.57-.57Z"/>
          <rect class="cls-3" x="34.33" y="113.01" width="1.53" height="1.53"/>
          <path class="cls-3" d="M36.43,114.53c-.32,0-.57-.26-.57-.57v.57"/>
          <path class="cls-3" d="M40.44,113.58v.38c0,.32.26.57.57.57h.38c.32,0,.57-.26.57-.57v-.96h-1.53v.57Z"/>
          <path class="cls-3" d="M15.98,115.11v.38c0,.32.26.57.57.57h.96v-1.53h-.96c-.32,0-.57.26-.57.57Z"/>
          <rect class="cls-3" x="17.51" y="114.53" width="1.53" height="1.53"/>
          <rect class="cls-3" x="19.04" y="114.53" width="1.53" height="1.53"/>
          <rect class="cls-3" x="20.57" y="114.53" width="1.53" height="1.53"/>
          <path class="cls-3" d="M22.1,114.53h.96c.32,0,.57.26.57.57v.96h-1.53v-1.53Z"/>
          <path class="cls-3" d="M25.15,115.11v.38c0,.32.26.57.57.57h.96v-1.53h-.96c-.32,0-.57.26-.57.57Z"/>
          <rect class="cls-3" x="26.68" y="114.53" width="1.53" height="1.53"/>
          <rect class="cls-3" x="28.21" y="114.53" width="1.53" height="1.53"/>
          <rect class="cls-3" x="29.74" y="114.53" width="1.53" height="1.53"/>
          <path class="cls-3" d="M32.8,115.49v-.38c0-.32-.26-.57-.57-.57h-.96v1.53h.96c.32,0,.57-.26.57-.57Z"/>
          <path class="cls-3" d="M34.9,116.06h.96v-1.53h-1.53v.96c0,.32.26.57.57.57Z"/>
          <rect class="cls-3" x="35.85" y="114.53" width="1.53" height="1.53"/>
          <rect class="cls-3" x="37.38" y="114.53" width="1.53" height="1.53"/>
          <path class="cls-3" d="M38.91,114.53h.96c.32,0,.57.26.57.57v.96h-1.53v-1.53Z"/>
          <path class="cls-3" d="M41.97,116.06v-.57c0,.32-.26.57-.57.57"/>
          <path class="cls-3" d="M41.01,116.06c-.32,0-.57-.26-.57-.57v.57"/>
          <path class="cls-3" d="M42.92,114.53h-.38c-.32,0-.57.26-.57.57v.96h1.53v-.96c0-.32-.26-.57-.57-.57Z"/>
          <path class="cls-3" d="M45.98,114.53h-.38c-.32,0-.57.26-.57.57v.96h1.53v-.96c0-.32-.26-.57-.57-.57Z"/>
          <path class="cls-3" d="M47.13,116.06c-.32,0-.57-.26-.57-.57v.57"/>
          <rect class="cls-3" x="48.08" y="114.53" width="1.53" height="1.53" rx=".45" ry=".45"/>
          <rect class="cls-3" x="51.14" y="114.53" width="1.53" height="1.53" rx=".45" ry=".45"/>
          <path class="cls-3" d="M20,116.06c.32,0,.57.26.57.57v-.57"/>
          <path class="cls-3" d="M21.14,117.59h.96v-1.53h-1.53v.96c0,.32.26.57.57.57Z"/>
          <path class="cls-3" d="M23.05,117.59h-.96v-1.53h1.53v.96c0,.32-.26.57-.57.57Z"/>
          <path class="cls-3" d="M26.11,116.06c.32,0,.57.26.57.57v-.57"/>
          <path class="cls-3" d="M26.68,117.59v-.57c0,.32-.26.57-.57.57"/>
          <rect class="cls-3" x="26.68" y="116.06" width="1.53" height="1.53"/>
          <path class="cls-3" d="M28.21,116.06v.57c0-.32.26-.57.57-.57"/>
          <path class="cls-3" d="M29.17,116.06c.32,0,.57.26.57.57v-.57"/>
          <rect class="cls-3" x="29.74" y="116.06" width="1.53" height="1.53"/>
          <path class="cls-3" d="M31.27,116.06v.57c0-.32.26-.57.57-.57"/>
          <path class="cls-3" d="M36.81,116.06c.32,0,.57.26.57.57v-.57"/>
          <rect class="cls-3" x="37.38" y="116.06" width="1.53" height="1.53"/>
          <rect class="cls-3" x="38.91" y="116.06" width="1.53" height="1.53"/>
          <rect class="cls-3" x="40.44" y="116.06" width="1.53" height="1.53"/>
          <rect class="cls-3" x="41.97" y="116.06" width="1.53" height="1.53"/>
          <path class="cls-3" d="M44.07,117.59c-.32,0-.57-.26-.57-.57v.57"/>
          <path class="cls-3" d="M45.6,117.59h.96v-1.53h-1.53v.96c0,.32.26.57.57.57Z"/>
          <path class="cls-3" d="M46.55,116.06h.96c.32,0,.57.26.57.57v.96h-1.53v-1.53Z"/>
          <rect class="cls-3" x="52.67" y="116.06" width="1.53" height="1.53" rx=".45" ry=".45"/>
          <path class="cls-3" d="M15.98,118.16v.38c0,.32.26.57.57.57h.96v-1.53h-.96c-.32,0-.57.26-.57.57Z"/>
          <rect class="cls-3" x="17.51" y="117.59" width="1.53" height="1.53"/>
          <path class="cls-3" d="M19.04,117.59h.96c.32,0,.57.26.57.57v.96h-1.53v-1.53Z"/>
          <path class="cls-3" d="M23.63,118.16v.38c0,.32.26.57.57.57h.96v-1.53h-.96c-.32,0-.57.26-.57.57Z"/>
          <rect class="cls-3" x="25.15" y="117.59" width="1.53" height="1.53"/>
          <rect class="cls-3" x="26.68" y="117.59" width="1.53" height="1.53"/>
          <path class="cls-3" d="M29.74,119.12v-.57c0,.32-.26.57-.57.57"/>
          <path class="cls-3" d="M28.79,119.12c-.32,0-.57-.26-.57-.57v.57"/>
          <rect class="cls-3" x="29.74" y="117.59" width="1.53" height="1.53"/>
          <path class="cls-3" d="M32.8,119.12v-.57c0,.32-.26.57-.57.57"/>
          <path class="cls-3" d="M31.84,119.12c-.32,0-.57-.26-.57-.57v.57"/>
          <path class="cls-3" d="M34.33,117.59h-.96c-.32,0-.57.26-.57.57v.96h1.53v-1.53Z"/>
          <path class="cls-3" d="M35.85,118.55v-.38c0-.32-.26-.57-.57-.57h-.96v1.53h.96c.32,0,.57-.26.57-.57Z"/>
          <path class="cls-3" d="M37.96,119.12h.96v-1.53h-1.53v.96c0,.32.26.57.57.57Z"/>
          <path class="cls-3" d="M39.87,119.12h-.96v-1.53h1.53v.96c0,.32-.26.57-.57.57Z"/>
          <path class="cls-3" d="M40.44,117.59v.57c0-.32.26-.57.57-.57"/>
          <path class="cls-3" d="M41.4,117.59c.32,0,.57.26.57.57v-.57"/>
          <path class="cls-3" d="M41.97,119.12v-.57c0,.32-.26.57-.57.57"/>
          <rect class="cls-3" x="41.97" y="117.59" width="1.53" height="1.53"/>
          <path class="cls-3" d="M45.03,118.55v-.38c0-.32-.26-.57-.57-.57h-.96v1.53h.96c.32,0,.57-.26.57-.57Z"/>
          <path class="cls-3" d="M45.98,117.59c.32,0,.57.26.57.57v-.57"/>
          <path class="cls-3" d="M46.55,118.16v.38c0,.32.26.57.57.57h.38c.32,0,.57-.26.57-.57v-.96h-1.53v.57Z"/>
          <rect class="cls-3" x="49.61" y="117.59" width="1.53" height="1.53" rx=".45" ry=".45"/>
          <path class="cls-3" d="M18.47,119.12c.32,0,.57.26.57.57v-.57"/>
          <path class="cls-3" d="M19.04,120.65v-.57c0,.32-.26.57-.57.57"/>
          <rect class="cls-3" x="19.04" y="119.12" width="1.53" height="1.53"/>
          <path class="cls-3" d="M23.05,119.12h-.38c-.32,0-.57.26-.57.57v.96h1.53v-.96c0-.32-.26-.57-.57-.57Z"/>
          <path class="cls-3" d="M24.2,120.65c-.32,0-.57-.26-.57-.57v.57"/>
          <path class="cls-3" d="M26.11,119.12c.32,0,.57.26.57.57v-.57"/>
          <path class="cls-3" d="M26.68,120.65v-.57c0,.32-.26.57-.57.57"/>
          <rect class="cls-3" x="26.68" y="119.12" width="1.53" height="1.53"/>
          <rect class="cls-3" x="28.21" y="119.12" width="1.53" height="1.53"/>
          <rect class="cls-3" x="29.74" y="119.12" width="1.53" height="1.53"/>
          <rect class="cls-3" x="31.27" y="119.12" width="1.53" height="1.53"/>
          <rect class="cls-3" x="32.8" y="119.12" width="1.53" height="1.53"/>
          <path class="cls-3" d="M34.33,119.12v.57c0-.32.26-.57.57-.57"/>
          <path class="cls-3" d="M40.44,119.69v.38c0,.32.26.57.57.57h.96v-1.53h-.96c-.32,0-.57.26-.57.57Z"/>
          <path class="cls-3" d="M42.92,120.65h-.96v-1.53h1.53v.96c0,.32-.26.57-.57.57Z"/>
          <path class="cls-3" d="M43.5,119.12v.57c0-.32.26-.57.57-.57"/>
          <path class="cls-3" d="M17.51,121.22v.38c0,.32.26.57.57.57h.96v-1.53h-.96c-.32,0-.57.26-.57.57Z"/>
          <rect class="cls-3" x="19.04" y="120.65" width="1.53" height="1.53"/>
          <path class="cls-3" d="M22.1,122.18v-.57c0,.32-.26.57-.57.57"/>
          <path class="cls-3" d="M21.14,122.18c-.32,0-.57-.26-.57-.57v.57"/>
          <rect class="cls-3" x="22.1" y="120.65" width="1.53" height="1.53"/>
          <rect class="cls-3" x="23.63" y="120.65" width="1.53" height="1.53"/>
          <rect class="cls-3" x="25.15" y="120.65" width="1.53" height="1.53"/>
          <rect class="cls-3" x="26.68" y="120.65" width="1.53" height="1.53"/>
          <rect class="cls-3" x="28.21" y="120.65" width="1.53" height="1.53"/>
          <rect class="cls-3" x="29.74" y="120.65" width="1.53" height="1.53"/>
          <path class="cls-3" d="M31.27,120.65v.57c0-.32.26-.57.57-.57"/>
          <path class="cls-3" d="M32.22,120.65c.32,0,.57.26.57.57v-.57"/>
          <path class="cls-3" d="M31.84,122.18c-.32,0-.57-.26-.57-.57v.57"/>
          <path class="cls-3" d="M32.8,121.22v.38c0,.32.26.57.57.57h.38c.32,0,.57-.26.57-.57v-.96h-1.53v.57Z"/>
          <rect class="cls-3" x="35.85" y="120.65" width="1.53" height="1.53" rx=".45" ry=".45"/>
          <rect class="cls-3" x="38.91" y="120.65" width="1.53" height="1.53" rx=".45" ry=".45"/>
          <path class="cls-3" d="M43.5,122.18v-.57c0,.32-.26.57-.57.57"/>
          <path class="cls-3" d="M45.03,120.65h-.96c-.32,0-.57.26-.57.57v.96h1.53v-1.53Z"/>
          <rect class="cls-3" x="45.03" y="120.65" width="1.53" height="1.53"/>
          <rect class="cls-3" x="46.55" y="120.65" width="1.53" height="1.53"/>
          <path class="cls-3" d="M49.61,121.6v-.38c0-.32-.26-.57-.57-.57h-.96v1.53h.96c.32,0,.57-.26.57-.57Z"/>
          <path class="cls-3" d="M51.14,121.22v.38c0,.32.26.57.57.57h.96v-1.53h-.96c-.32,0-.57.26-.57.57Z"/>
          <path class="cls-3" d="M54.2,121.6v-.38c0-.32-.26-.57-.57-.57h-.96v1.53h.96c.32,0,.57-.26.57-.57Z"/>
          <path class="cls-3" d="M16.94,122.18h-.38c-.32,0-.57.26-.57.57v.96h1.53v-.96c0-.32-.26-.57-.57-.57Z"/>
          <path class="cls-3" d="M18.47,122.18c.32,0,.57.26.57.57v-.57"/>
          <rect class="cls-3" x="19.04" y="122.18" width="1.53" height="1.53"/>
          <rect class="cls-3" x="20.57" y="122.18" width="1.53" height="1.53"/>
          <path class="cls-3" d="M23.05,123.71h-.96v-1.53h1.53v.96c0,.32-.26.57-.57.57Z"/>
          <path class="cls-3" d="M23.63,122.18v.57c0-.32.26-.57.57-.57"/>
          <path class="cls-3" d="M27.64,122.18c.32,0,.57.26.57.57v-.57"/>
          <path class="cls-3" d="M28.79,123.71h.96v-1.53h-1.53v.96c0,.32.26.57.57.57Z"/>
          <rect class="cls-3" x="29.74" y="122.18" width="1.53" height="1.53"/>
          <path class="cls-3" d="M31.27,122.18h.96c.32,0,.57.26.57.57v.96h-1.53v-1.53Z"/>
          <rect class="cls-3" x="34.33" y="122.18" width="1.53" height="1.53" rx=".45" ry=".45"/>
          <path class="cls-3" d="M40.44,122.75v.38c0,.32.26.57.57.57h.96v-1.53h-.96c-.32,0-.57.26-.57.57Z"/>
          <rect class="cls-3" x="41.97" y="122.18" width="1.53" height="1.53"/>
          <rect class="cls-3" x="43.5" y="122.18" width="1.53" height="1.53"/>
          <rect class="cls-3" x="45.03" y="122.18" width="1.53" height="1.53"/>
          <rect class="cls-3" x="46.55" y="122.18" width="1.53" height="1.53"/>
          <path class="cls-3" d="M48.08,122.18v.57c0-.32.26-.57.57-.57"/>
          <rect class="cls-3" x="15.98" y="123.71" width="1.53" height="1.53"/>
          <rect class="cls-3" x="19.04" y="123.71" width="1.53" height="1.53"/>
          <path class="cls-3" d="M20.57,123.71v.57c0-.32.26-.57.57-.57"/>
          <path class="cls-3" d="M21.14,125.23c-.32,0-.57-.26-.57-.57v.57"/>
          <path class="cls-3" d="M25.15,124.28v.38c0,.32.26.57.57.57h.96v-1.53h-.96c-.32,0-.57.26-.57.57Z"/>
          <path class="cls-3" d="M26.68,123.71h.96c.32,0,.57.26.57.57v.96h-1.53v-1.53Z"/>
          <path class="cls-3" d="M29.17,123.71c.32,0,.57.26.57.57v-.57"/>
          <rect class="cls-3" x="29.74" y="123.71" width="1.53" height="1.53"/>
          <rect class="cls-3" x="31.27" y="123.71" width="1.53" height="1.53"/>
          <path class="cls-3" d="M35.85,124.28v.38c0,.32.26.57.57.57h.96v-1.53h-.96c-.32,0-.57.26-.57.57Z"/>
          <path class="cls-3" d="M38.91,124.66v-.38c0-.32-.26-.57-.57-.57h-.96v1.53h.96c.32,0,.57-.26.57-.57Z"/>
          <path class="cls-3" d="M41.4,123.71c.32,0,.57.26.57.57v-.57"/>
          <rect class="cls-3" x="41.97" y="123.71" width="1.53" height="1.53"/>
          <path class="cls-3" d="M44.45,125.23h-.96v-1.53h1.53v.96c0,.32-.26.57-.57.57Z"/>
          <path class="cls-3" d="M45.03,123.71v.57c0-.32.26-.57.57-.57"/>
          <path class="cls-3" d="M45.98,123.71c.32,0,.57.26.57.57v-.57"/>
          <path class="cls-3" d="M46.55,124.28v.38c0,.32.26.57.57.57h.38c.32,0,.57-.26.57-.57v-.96h-1.53v.57Z"/>
          <path class="cls-3" d="M49.61,124.28v.38c0,.32.26.57.57.57h.96v-1.53h-.96c-.32,0-.57.26-.57.57Z"/>
          <rect class="cls-3" x="51.14" y="123.71" width="1.53" height="1.53"/>
          <path class="cls-3" d="M52.67,123.71h.96c.32,0,.57.26.57.57v.96h-1.53v-1.53Z"/>
          <rect class="cls-3" x="15.98" y="125.23" width="1.53" height="1.53"/>
          <path class="cls-3" d="M19.61,126.76h.96v-1.53h-1.53v.96c0,.32.26.57.57.57Z"/>
          <path class="cls-3" d="M20.57,125.23h.96c.32,0,.57.26.57.57v.96h-1.53v-1.53Z"/>
          <path class="cls-3" d="M22.67,126.76c-.32,0-.57-.26-.57-.57v.57"/>
          <rect class="cls-3" x="23.63" y="125.23" width="1.53" height="1.53" rx=".45" ry=".45"/>
          <path class="cls-3" d="M26.11,125.23c.32,0,.57.26.57.57v-.57"/>
          <path class="cls-3" d="M26.68,126.76v-.57c0,.32-.26.57-.57.57"/>
          <rect class="cls-3" x="26.68" y="125.23" width="1.53" height="1.53"/>
          <path class="cls-3" d="M29.74,126.76v-.57c0,.32-.26.57-.57.57"/>
          <path class="cls-3" d="M28.79,126.76c-.32,0-.57-.26-.57-.57v.57"/>
          <rect class="cls-3" x="29.74" y="125.23" width="1.53" height="1.53"/>
          <rect class="cls-3" x="31.27" y="125.23" width="1.53" height="1.53"/>
          <path class="cls-3" d="M35.28,125.23h-.38c-.32,0-.57.26-.57.57v.96h1.53v-.96c0-.32-.26-.57-.57-.57Z"/>
          <path class="cls-3" d="M41.97,126.76v-.57c0,.32-.26.57-.57.57"/>
          <rect class="cls-3" x="41.97" y="125.23" width="1.53" height="1.53"/>
          <path class="cls-3" d="M43.5,125.23v.57c0-.32.26-.57.57-.57"/>
          <path class="cls-3" d="M44.07,126.76c-.32,0-.57-.26-.57-.57v.57"/>
          <path class="cls-3" d="M50.57,125.23c.32,0,.57.26.57.57v-.57"/>
          <path class="cls-3" d="M51.71,126.76h.96v-1.53h-1.53v.96c0,.32.26.57.57.57Z"/>
          <rect class="cls-3" x="52.67" y="125.23" width="1.53" height="1.53"/>
          <path class="cls-3" d="M15.98,127.34v.38c0,.32.26.57.57.57h.38c.32,0,.57-.26.57-.57v-.96h-1.53v.57Z"/>
          <path class="cls-3" d="M20,126.76c.32,0,.57.26.57.57v-.57"/>
          <path class="cls-3" d="M21.14,128.29h.96v-1.53h-1.53v.96c0,.32.26.57.57.57Z"/>
          <path class="cls-3" d="M23.63,127.72v-.38c0-.32-.26-.57-.57-.57h-.96v1.53h.96c.32,0,.57-.26.57-.57Z"/>
          <path class="cls-3" d="M25.15,127.34v.38c0,.32.26.57.57.57h.96v-1.53h-.96c-.32,0-.57.26-.57.57Z"/>
          <rect class="cls-3" x="26.68" y="126.76" width="1.53" height="1.53"/>
          <rect class="cls-3" x="28.21" y="126.76" width="1.53" height="1.53"/>
          <rect class="cls-3" x="29.74" y="126.76" width="1.53" height="1.53"/>
          <path class="cls-3" d="M32.22,128.29h-.96v-1.53h1.53v.96c0,.32-.26.57-.57.57Z"/>
          <path class="cls-3" d="M34.33,127.34v.38c0,.32.26.57.57.57h.38c.32,0,.57-.26.57-.57v-.96h-1.53v.57Z"/>
          <path class="cls-3" d="M38.91,126.76h-.96c-.32,0-.57.26-.57.57v.96h1.53v-1.53Z"/>
          <rect class="cls-3" x="38.91" y="126.76" width="1.53" height="1.53"/>
          <rect class="cls-3" x="40.44" y="126.76" width="1.53" height="1.53"/>
          <rect class="cls-3" x="41.97" y="126.76" width="1.53" height="1.53"/>
          <rect class="cls-3" x="43.5" y="126.76" width="1.53" height="1.53"/>
          <rect class="cls-3" x="45.03" y="126.76" width="1.53" height="1.53"/>
          <rect class="cls-3" x="46.55" y="126.76" width="1.53" height="1.53"/>
          <path class="cls-3" d="M49.61,127.72v-.38c0-.32-.26-.57-.57-.57h-.96v1.53h.96c.32,0,.57-.26.57-.57Z"/>
          <path class="cls-3" d="M52.1,126.76c.32,0,.57.26.57.57v-.57"/>
          <rect class="cls-3" x="52.67" y="126.76" width="1.53" height="1.53"/>
          <path class="cls-3" d="M27.64,128.29c.32,0,.57.26.57.57v-.57"/>
          <rect class="cls-3" x="28.21" y="128.29" width="1.53" height="1.53"/>
          <path class="cls-3" d="M29.74,128.29v.57c0-.32.26-.57.57-.57"/>
          <path class="cls-3" d="M30.31,129.82c-.32,0-.57-.26-.57-.57v.57"/>
          <rect class="cls-3" x="37.38" y="128.29" width="1.53" height="1.53"/>
          <path class="cls-3" d="M38.91,128.29v.57c0-.32.26-.57.57-.57"/>
          <path class="cls-3" d="M39.87,128.29c.32,0,.57.26.57.57v-.57"/>
          <rect class="cls-3" x="40.44" y="128.29" width="1.53" height="1.53"/>
          <path class="cls-3" d="M41.97,128.29v.57c0-.32.26-.57.57-.57"/>
          <path class="cls-3" d="M45.98,128.29c.32,0,.57.26.57.57v-.57"/>
          <rect class="cls-3" x="46.55" y="128.29" width="1.53" height="1.53"/>
          <path class="cls-3" d="M48.08,128.29v.57c0-.32.26-.57.57-.57"/>
          <path class="cls-3" d="M52.67,129.82v-.57c0,.32-.26.57-.57.57"/>
          <rect class="cls-3" x="52.67" y="128.29" width="1.53" height="1.53"/>
          <path class="cls-3" d="M28.79,131.35h.96v-1.53h-1.53v.96c0,.32.26.57.57.57Z"/>
          <rect class="cls-3" x="29.74" y="129.82" width="1.53" height="1.53"/>
          <rect class="cls-3" x="31.27" y="129.82" width="1.53" height="1.53"/>
          <rect class="cls-3" x="32.8" y="129.82" width="1.53" height="1.53"/>
          <path class="cls-3" d="M35.85,130.77v-.38c0-.32-.26-.57-.57-.57h-.96v1.53h.96c.32,0,.57-.26.57-.57Z"/>
          <path class="cls-3" d="M37.38,130.39v.38c0,.32.26.57.57.57h.38c.32,0,.57-.26.57-.57v-.96h-1.53v.57Z"/>
          <rect class="cls-3" x="40.44" y="129.82" width="1.53" height="1.53"/>
          <rect class="cls-3" x="43.5" y="129.82" width="1.53" height="1.53" rx=".45" ry=".45"/>
          <rect class="cls-3" x="46.55" y="129.82" width="1.53" height="1.53"/>
          <path class="cls-3" d="M48.66,131.35c-.32,0-.57-.26-.57-.57v.57"/>
          <path class="cls-3" d="M49.61,130.39v.38c0,.32.26.57.57.57h.96v-1.53h-.96c-.32,0-.57.26-.57.57Z"/>
          <rect class="cls-3" x="51.14" y="129.82" width="1.53" height="1.53"/>
          <path class="cls-3" d="M53.62,131.35h-.96v-1.53h1.53v.96c0,.32-.26.57-.57.57Z"/>
          <path class="cls-3" d="M29.17,131.35c.32,0,.57.26.57.57v-.57"/>
          <path class="cls-3" d="M29.74,131.92v.38c0,.32.26.57.57.57h.38c.32,0,.57-.26.57-.57v-.96h-1.53v.57Z"/>
          <path class="cls-3" d="M31.27,131.35v.57c0-.32.26-.57.57-.57"/>
          <path class="cls-3" d="M32.22,131.35c.32,0,.57.26.57.57v-.57"/>
          <rect class="cls-3" x="32.8" y="131.35" width="1.53" height="1.53"/>
          <path class="cls-3" d="M34.33,131.35v.57c0-.32.26-.57.57-.57"/>
          <path class="cls-3" d="M35.85,132.88v-.57c0,.32-.26.57-.57.57"/>
          <path class="cls-3" d="M34.9,132.88c-.32,0-.57-.26-.57-.57v.57"/>
          <path class="cls-3" d="M36.81,131.35h-.38c-.32,0-.57.26-.57.57v.96h1.53v-.96c0-.32-.26-.57-.57-.57Z"/>
          <path class="cls-3" d="M37.96,132.88c-.32,0-.57-.26-.57-.57v.57"/>
          <rect class="cls-3" x="40.44" y="131.35" width="1.53" height="1.53"/>
          <path class="cls-3" d="M42.54,132.88c-.32,0-.57-.26-.57-.57v.57"/>
          <path class="cls-3" d="M46.55,132.88v-.57c0,.32-.26.57-.57.57"/>
          <rect class="cls-3" x="46.55" y="131.35" width="1.53" height="1.53"/>
          <path class="cls-3" d="M48.08,131.35h.96c.32,0,.57.26.57.57v.96h-1.53v-1.53Z"/>
          <path class="cls-3" d="M29.17,132.88h-.38c-.32,0-.57.26-.57.57v.96h1.53v-.96c0-.32-.26-.57-.57-.57Z"/>
          <path class="cls-3" d="M30.31,134.4c-.32,0-.57-.26-.57-.57v.57"/>
          <path class="cls-3" d="M33.37,134.4h.96v-1.53h-1.53v.96c0,.32.26.57.57.57Z"/>
          <rect class="cls-3" x="34.33" y="132.88" width="1.53" height="1.53"/>
          <rect class="cls-3" x="35.85" y="132.88" width="1.53" height="1.53"/>
          <path class="cls-3" d="M37.38,132.88h.96c.32,0,.57.26.57.57v.96h-1.53v-1.53Z"/>
          <path class="cls-3" d="M40.44,134.4v-.57c0,.32-.26.57-.57.57"/>
          <path class="cls-3" d="M39.48,134.4c-.32,0-.57-.26-.57-.57v.57"/>
          <rect class="cls-3" x="40.44" y="132.88" width="1.53" height="1.53"/>
          <rect class="cls-3" x="41.97" y="132.88" width="1.53" height="1.53"/>
          <rect class="cls-3" x="43.5" y="132.88" width="1.53" height="1.53"/>
          <rect class="cls-3" x="45.03" y="132.88" width="1.53" height="1.53"/>
          <rect class="cls-3" x="46.55" y="132.88" width="1.53" height="1.53"/>
          <path class="cls-3" d="M49.04,134.4h-.96v-1.53h1.53v.96c0,.32-.26.57-.57.57Z"/>
          <rect class="cls-3" x="28.21" y="134.4" width="1.53" height="1.53"/>
          <rect class="cls-3" x="29.74" y="134.4" width="1.53" height="1.53"/>
          <path class="cls-3" d="M32.8,135.36v-.38c0-.32-.26-.57-.57-.57h-.96v1.53h.96c.32,0,.57-.26.57-.57Z"/>
          <path class="cls-3" d="M33.75,134.4c.32,0,.57.26.57.57v-.57"/>
          <rect class="cls-3" x="34.33" y="134.4" width="1.53" height="1.53"/>
          <path class="cls-3" d="M35.85,134.4v.57c0-.32.26-.57.57-.57"/>
          <path class="cls-3" d="M36.81,134.4c.32,0,.57.26.57.57v-.57"/>
          <path class="cls-3" d="M37.38,135.93v-.57c0,.32-.26.57-.57.57"/>
          <path class="cls-3" d="M36.43,135.93c-.32,0-.57-.26-.57-.57v.57"/>
          <rect class="cls-3" x="37.38" y="134.4" width="1.53" height="1.53"/>
          <rect class="cls-3" x="38.91" y="134.4" width="1.53" height="1.53"/>
          <path class="cls-3" d="M41.4,135.93h-.96v-1.53h1.53v.96c0,.32-.26.57-.57.57Z"/>
          <path class="cls-3" d="M41.97,134.4v.57c0-.32.26-.57.57-.57"/>
          <path class="cls-3" d="M42.92,134.4c.32,0,.57.26.57.57v-.57"/>
          <path class="cls-3" d="M43.5,134.98v.38c0,.32.26.57.57.57h.38c.32,0,.57-.26.57-.57v-.96h-1.53v.57Z"/>
          <path class="cls-3" d="M45.03,134.4v.57c0-.32.26-.57.57-.57"/>
          <path class="cls-3" d="M45.98,134.4c.32,0,.57.26.57.57v-.57"/>
          <rect class="cls-3" x="46.55" y="134.4" width="1.53" height="1.53"/>
          <path class="cls-3" d="M48.08,134.4v.57c0-.32.26-.57.57-.57"/>
          <path class="cls-3" d="M51.14,134.98v.38c0,.32.26.57.57.57h.96v-1.53h-.96c-.32,0-.57.26-.57.57Z"/>
          <path class="cls-3" d="M52.67,134.4h.96c.32,0,.57.26.57.57v.96h-1.53v-1.53Z"/>
          <rect class="cls-3" x="28.21" y="135.93" width="1.53" height="1.53"/>
          <rect class="cls-3" x="29.74" y="135.93" width="1.53" height="1.53"/>
          <path class="cls-3" d="M31.27,135.93v.57c0-.32.26-.57.57-.57"/>
          <rect class="cls-3" x="34.33" y="135.93" width="1.53" height="1.53"/>
          <rect class="cls-3" x="35.85" y="135.93" width="1.53" height="1.53"/>
          <rect class="cls-3" x="37.38" y="135.93" width="1.53" height="1.53"/>
          <path class="cls-3" d="M38.91,135.93v.57c0-.32.26-.57.57-.57"/>
          <path class="cls-3" d="M46.55,137.46v-.57c0,.32-.26.57-.57.57"/>
          <rect class="cls-3" x="46.55" y="135.93" width="1.53" height="1.53"/>
          <path class="cls-3" d="M48.66,137.46c-.32,0-.57-.26-.57-.57v.57"/>
          <rect class="cls-3" x="49.61" y="135.93" width="1.53" height="1.53" rx=".45" ry=".45"/>
          <path class="cls-3" d="M52.1,135.93c.32,0,.57.26.57.57v-.57"/>
          <path class="cls-3" d="M52.67,136.51v.38c0,.32.26.57.57.57h.38c.32,0,.57-.26.57-.57v-.96h-1.53v.57Z"/>
          <rect class="cls-3" x="28.21" y="137.46" width="1.53" height="1.53"/>
          <path class="cls-3" d="M30.7,138.99h-.96v-1.53h1.53v.96c0,.32-.26.57-.57.57Z"/>
          <rect class="cls-3" x="34.33" y="137.46" width="1.53" height="1.53"/>
          <path class="cls-3" d="M35.85,137.46v.57c0-.32.26-.57.57-.57"/>
          <path class="cls-3" d="M36.81,137.46c.32,0,.57.26.57.57v-.57"/>
          <path class="cls-3" d="M37.38,138.99v-.57c0,.32-.26.57-.57.57"/>
          <path class="cls-3" d="M36.43,138.99c-.32,0-.57-.26-.57-.57v.57"/>
          <rect class="cls-3" x="37.38" y="137.46" width="1.53" height="1.53"/>
          <path class="cls-3" d="M39.48,138.99c-.32,0-.57-.26-.57-.57v.57"/>
          <path class="cls-3" d="M40.44,138.04v.38c0,.32.26.57.57.57h.96v-1.53h-.96c-.32,0-.57.26-.57.57Z"/>
          <rect class="cls-3" x="41.97" y="137.46" width="1.53" height="1.53"/>
          <rect class="cls-3" x="43.5" y="137.46" width="1.53" height="1.53"/>
          <rect class="cls-3" x="45.03" y="137.46" width="1.53" height="1.53"/>
          <rect class="cls-3" x="46.55" y="137.46" width="1.53" height="1.53"/>
          <path class="cls-3" d="M49.61,138.42v-.38c0-.32-.26-.57-.57-.57h-.96v1.53h.96c.32,0,.57-.26.57-.57Z"/>
          <path class="cls-3" d="M51.14,138.99v-.57c0,.32-.26.57-.57.57"/>
          <path class="cls-3" d="M52.1,137.46h-.38c-.32,0-.57.26-.57.57v.96h1.53v-.96c0-.32-.26-.57-.57-.57Z"/>
          <path class="cls-3" d="M53.24,138.99c-.32,0-.57-.26-.57-.57v.57"/>
          <path class="cls-3" d="M28.21,139.56v.38c0,.32.26.57.57.57h.38c.32,0,.57-.26.57-.57v-.96h-1.53v.57Z"/>
          <path class="cls-3" d="M29.74,138.99v.57c0-.32.26-.57.57-.57"/>
          <rect class="cls-3" x="31.27" y="138.99" width="1.53" height="1.53" rx=".45" ry=".45"/>
          <path class="cls-3" d="M34.9,140.52h.96v-1.53h-1.53v.96c0,.32.26.57.57.57Z"/>
          <rect class="cls-3" x="35.85" y="138.99" width="1.53" height="1.53"/>
          <rect class="cls-3" x="37.38" y="138.99" width="1.53" height="1.53"/>
          <path class="cls-3" d="M40.44,139.95v-.38c0-.32-.26-.57-.57-.57h-.96v1.53h.96c.32,0,.57-.26.57-.57Z"/>
          <path class="cls-3" d="M49.61,139.56v.38c0,.32.26.57.57.57h.96v-1.53h-.96c-.32,0-.57.26-.57.57Z"/>
          <rect class="cls-3" x="51.14" y="138.99" width="1.53" height="1.53"/>
          <path class="cls-3" d="M54.2,139.95v-.38c0-.32-.26-.57-.57-.57h-.96v1.53h.96c.32,0,.57-.26.57-.57Z"/>
          <path class="cls-3" d="M16.31,102.3c-.18,0-.33.15-.33.33v10.05c0,.18.15.33.33.33h10.05c.18,0,.33-.15.33-.33v-10.05c0-.18-.15-.33-.33-.33h-10.05ZM25.15,105.36v5.93c0,.1-.08.19-.19.19h-7.27c-.1,0-.19-.08-.19-.19v-7.27c0-.1.08-.19.19-.19h7.27c.1,0,.19.08.19.19v1.34Z"/>
          <path class="cls-3" d="M23.63,108.42v-2.73c0-.18-.15-.33-.33-.33h-3.94c-.18,0-.33.15-.33.33v3.94c0,.18.15.33.33.33h3.94c.18,0,.33-.15.33-.33v-1.2Z"/>
          <path class="cls-3" d="M43.82,102.3c-.18,0-.33.15-.33.33v10.05c0,.18.15.33.33.33h10.05c.18,0,.33-.15.33-.33v-10.05c0-.18-.15-.33-.33-.33h-10.05ZM52.67,105.36v5.93c0,.1-.08.19-.19.19h-7.27c-.1,0-.19-.08-.19-.19v-7.27c0-.1.08-.19.19-.19h7.27c.1,0,.19.08.19.19v1.34Z"/>
          <path class="cls-3" d="M51.14,108.42v-2.73c0-.18-.15-.33-.33-.33h-3.94c-.18,0-.33.15-.33.33v3.94c0,.18.15.33.33.33h3.94c.18,0,.33-.15.33-.33v-1.2Z"/>
          <path class="cls-3" d="M16.31,129.82c-.18,0-.33.15-.33.33v10.05c0,.18.15.33.33.33h10.05c.18,0,.33-.15.33-.33v-10.05c0-.18-.15-.33-.33-.33h-10.05ZM25.15,132.88v5.93c0,.1-.08.19-.19.19h-7.27c-.1,0-.19-.08-.19-.19v-7.27c0-.1.08-.19.19-.19h7.27c.1,0,.19.08.19.19v1.34Z"/>
          <path class="cls-3" d="M23.63,135.93v-2.73c0-.18-.15-.33-.33-.33h-3.94c-.18,0-.33.15-.33.33v3.94c0,.18.15.33.33.33h3.94c.18,0,.33-.15.33-.33v-1.2Z"/>
        </g>
        <g>
          <text class="cls-5" transform="translate(69.73 107.46)"><tspan x="0" y="0">@od</tspan><tspan class="cls-20" x="11.3" y="0">.</tspan><tspan class="cls-25" x="12.68" y="0">elibethvi</tspan><tspan class="cls-11" x="32.93" y="0">l</tspan><tspan class="cls-9" x="34.61" y="0">l</tspan><tspan x="36.26" y="0">a</tspan><tspan class="cls-13" x="39.35" y="0">l</tspan><tspan x="41" y="0">obos</tspan></text>
          <path class="cls-2" d="M63.52,107.43c.98,0,1.78-.8,1.78-1.78s-.8-1.78-1.78-1.78-1.78.8-1.78,1.78.8,1.78,1.78,1.78ZM63.52,106.84c.65,0,1.19-.53,1.19-1.19s-.53-1.19-1.19-1.19-1.19.53-1.19,1.19.53,1.19,1.19,1.19Z"/>
          <path class="cls-3" d="M65.3,103.57c-.16,0-.3.13-.3.3s.13.3.3.3.3-.13.3-.3-.13-.3-.3-.3Z"/>
          <path class="cls-2" d="M60.45,103.36c-.19.38-.19.88-.19,1.87v.83c0,1,0,1.49.19,1.87.17.33.44.61.78.78.38.19.88.19,1.87.19h.83c1,0,1.49,0,1.87-.19.33-.17.61-.44.78-.78.19-.38.19-.88.19-1.87v-.83c0-1,0-1.49-.19-1.87-.17-.33-.44-.61-.78-.78-.38-.19-.88-.19-1.87-.19h-.83c-1,0-1.49,0-1.87.19-.33.17-.61.44-.78.78ZM63.93,102.98h-.83c-.51,0-.85,0-1.12.02-.26.02-.39.06-.49.11-.22.11-.4.3-.52.52-.05.09-.09.23-.11.49-.02.27-.02.61-.02,1.12v.83c0,.51,0,.85.02,1.12.02.26.06.39.11.49.11.22.3.4.52.52.09.05.23.09.49.11.27.02.61.02,1.12.02h.83c.51,0,.85,0,1.12-.02.26-.02.39-.06.49-.11.22-.11.4-.3.52-.52.05-.09.09-.23.11-.49.02-.27.02-.61.02-1.12v-.83c0-.51,0-.85-.02-1.12-.02-.26-.06-.39-.11-.49-.11-.22-.3-.4-.52-.52-.09-.05-.23-.09-.49-.11-.27-.02-.61-.02-1.12-.02Z"/>
        </g>
        <g>
          <text class="cls-5" transform="translate(70.2 126.19)"><tspan x="0" y="0">in</tspan><tspan class="cls-9" x="4.21" y="0">f</tspan><tspan x="5.88" y="0">o@o</tspan><tspan class="cls-11" x="17.1" y="0">d</tspan><tspan class="cls-25" x="20.12" y="0">elibethvi</tspan><tspan class="cls-11" x="40.37" y="0">l</tspan><tspan class="cls-9" x="42.05" y="0">l</tspan><tspan x="43.7" y="0">a</tspan><tspan class="cls-13" x="46.79" y="0">l</tspan><tspan x="48.44" y="0">obos</tspan></text>
          <path class="cls-18" d="M60.52,123.72c.52.59,1.62,1,2.9,1s2.38-.41,2.9-1M60.52,123.72v2.22c0,.36,0,.54.07.68.06.12.16.22.28.28.14.07.32.07.68.07h3.74c.36,0,.54,0,.68-.07.12-.06.22-.16.28-.28.07-.14.07-.32.07-.68v-2.22M60.52,123.72v-.23c0-.36,0-.54.07-.68.06-.12.16-.22.28-.28.14-.07.32-.07.68-.07h3.74c.36,0,.54,0,.68.07.12.06.22.16.28.28.07.14.07.32.07.68v.23"/>
        </g>
        <g>
          <text class="cls-1" transform="translate(69.91 116.64)"><tspan x="0" y="0">+58 412 853 0414</tspan></text>
          <path class="cls-2" d="M61.01,112.75c.4-.4,1.05-.33,1.39.12l.41.55c.27.36.25.87-.07,1.19l-.08.08s-.01.04,0,.1c.02.13.13.42.6.88.47.46.75.58.89.6.06,0,.09,0,.1,0l.13-.13c.29-.28.73-.34,1.08-.15l.63.34c.54.29.67,1.02.23,1.46l-.46.46c-.15.15-.34.27-.58.29-.59.06-1.97-.02-3.42-1.46-1.35-1.35-1.61-2.52-1.65-3.1h.25s-.25,0-.25,0c-.02-.29.12-.54.3-.71l.51-.51ZM62.01,113.17c-.17-.22-.47-.24-.65-.07l-.51.51c-.11.11-.16.23-.15.34.03.46.24,1.52,1.5,2.78,1.33,1.32,2.56,1.36,3.03,1.32.1,0,.19-.06.28-.15l.46-.46c.19-.19.15-.53-.12-.68l-.63-.34c-.17-.09-.37-.06-.5.06l-.15.15-.17-.17q.17.17.17.17h0s0,0,0,0h0s0,0,0,0c0,0,0,0-.01.01,0,0-.02.02-.03.02-.03.02-.06.04-.1.05-.09.03-.21.05-.35.03-.28-.04-.66-.24-1.16-.73-.5-.5-.69-.87-.74-1.15-.02-.14,0-.26.03-.35.02-.04.04-.08.05-.1,0-.01.02-.02.02-.03,0,0,0,0,.01-.01h0s0,0,0,0h0s0,0,0,0t.17.17l-.17-.17.09-.09c.14-.14.16-.37.03-.55l-.41-.55Z"/>
        </g>
        <g>
          <text class="cls-5" transform="translate(70.58 134.96)"><tspan x="0" y="0">ww</tspan><tspan class="cls-15" x="8.18" y="0">w</tspan><tspan class="cls-20" x="11.97" y="0">.</tspan><tspan class="cls-25" x="13.34" y="0">o</tspan><tspan class="cls-11" x="16.33" y="0">d</tspan><tspan class="cls-25" x="19.35" y="0">elibethvi</tspan><tspan class="cls-11" x="39.6" y="0">l</tspan><tspan class="cls-9" x="41.28" y="0">l</tspan><tspan x="42.93" y="0">a</tspan><tspan class="cls-13" x="46.02" y="0">l</tspan><tspan class="cls-25" x="47.67" y="0">obos</tspan><tspan class="cls-20" x="58.96" y="0">.</tspan><tspan class="cls-11" x="60.34" y="0">c</tspan><tspan class="cls-25" x="62.65" y="0">om</tspan></text>
          <g>
            <path class="cls-2" d="M63.14,136.69c-1.62,0-2.94-1.31-2.94-2.92s1.32-2.92,2.94-2.92,2.94,1.31,2.94,2.92-1.32,2.92-2.94,2.92h0ZM63.15,131.19c-1.42,0-2.58,1.16-2.58,2.58s1.16,2.58,2.58,2.58,2.58-1.16,2.58-2.58-1.16-2.58-2.58-2.58h0Z"/>
            <rect class="cls-3" x="62.94" y="131.1" width=".36" height="5.53"/>
            <rect class="cls-3" x="60.31" y="133.57" width="5.48" height=".36"/>
            <rect class="cls-3" x="60.68" y="132.39" width="4.87" height=".36"/>
            <rect class="cls-3" x="60.68" y="134.75" width="4.87" height=".36"/>
            <path class="cls-2" d="M63.07,136.68c-1.02-.5-1.68-1.65-1.68-2.92s.64-2.38,1.62-2.89l.18.35c-.86.45-1.41,1.44-1.41,2.54s.57,2.13,1.46,2.57l-.17.35h0Z"/>
            <path class="cls-2" d="M63.24,136.63l-.18-.35c.84-.45,1.38-1.45,1.38-2.55s-.53-2.08-1.36-2.53l.19-.34c.95.52,1.56,1.65,1.56,2.88,0,1.25-.62,2.38-1.59,2.89h0Z"/>
          </g>
        </g>
      </g>
      <g class="cls-32">
        <g id="Logo_Principal-2" data-name="Logo Principal" class="cls-30">
          <path class="cls-31" d="M218.66,108.96s-7.44-13.24-20.71,4.38c0,0-6.06,7.16-12.27,18.48-.8,1.47-1.18,2.19-1.91,3.27-.2.29-1.97,3.46-4.71.37,0,0-12.02-11.78-18.01-27.43,0,0-4.91-8.43-7.83-31.09,0,0-3.36-30.15,6.52-47.19,3.31-5.72,7.68-6.6,14.28-6.52,5.85.07,8.69.36,17.08,3.71,0,0,16.27,7.23,28.83-1.43,0,0,16.53-13.3,30.59-.53,0,0-13.42-10.31-28.72,1.89,0,0-8.97,9.35-29.92,3.53,0,0-23.83-9.71-28.72.56,0,0-18.4,25.18,1,77.28,0,0,10.02,21.74,16.82,26.44.25.17.59.1.74-.16,1.85-3.28,13.27-22.8,20.33-28.35,0,0,10.8-9.1,16.61,2.79Z"/>
          <path class="cls-22" d="M257.27,31.3c.45,2.32,10.42,53.54-27.72,101.59,0,0,1.39-56.46.03-70.95,0-.12,0-.21-.03-.33-.06-.45-.3-.81-.66-1.08-.48-.3-.93-.45-1.42-.45h-.09c-1.18,0-5.36,3.89-18.02,15.18-1.45,1.3-2.92,2.29-3.65,2.8-.39.3-.69.45-.96.45s-.42-.27-.42-.81,2.47-4.64,4.4-7.92c1.93-3.28,2.59-4.49,2.5-5.97-.09-1.6-.96-1.84-1.57-1.84-1.3,0-1.18-.09-4.43,2.47l-.03.06c-.06.03-.12.09-.18.15-5.21,4.49-10.79,8.5-16.75,12.02-3.1,1.78-5.97,2.65-8.65,2.65s-4.01-1.27-4.01-3.83v-1.14c11.84-7.2,16.21-11.42,16.6-15.67,0-2.17-.99-3.43-2.89-3.25-.96.09-4.01.09-9.31,5.18-4.13,3.98-6,8.41-6.63,12.53-4.64,2.2-6.57,6.93-7.14,11.51-.66,5.36.45,11.33,2.53,16.3,1.48,3.49,2.8,4.73,3.1,4.97-1.42-1.57-2.2-5.03-2.2-5.03-5.21-20.13,1.45-24.64,3.49-25.52-.06.39-.06.81-.06,1.2,0,3.4,1.72,5.12,5.21,5.12,4.34,0,6.57-.9,11.9-4.22,4.79-3.01,10.33-7.02,17.26-12.65.03-.03.06-.03.06-.03.27-.18.54-.3.81-.24.27.06.18.54.09.9-.09.33-1.3,2.86-3.95,7.53-2.62,4.7-3.92,7.32-3.92,7.89s.15,1.11.51,1.57c.33.45.84.69,1.51.69s1.08-.45,2.5-1.69c11.21-9.73,14.61-13.35,16.84-15.21.69-.6,4.16-3.77,4.97-3.37l.42,71.73c2.41,2.41,5.24-1.14,5.24-1.14,3.89-5.27,11.3-18.26,14.31-23.65.87-1.57,1.69-3.13,2.38-4.79,3.49-8.16,6.3-16.12,7.92-22.05,1.11-4.22,1.9-8.56,2.32-12.89,2.71-28.98-1.72-37.87-2.26-38.77ZM181.5,61.82c2.65-2.86,4.85-4.28,6.54-4.28.84,0,1.3.51,1.3,1.57s-.81,3.62-3.37,6.15c-2.56,2.5-6.15,4.61-9.85,6.84.93-3.62,2.71-7.41,5.39-10.27Z"/>
        </g>
      </g>
    </g>
  </g>
</svg>