<?xml version="1.0" encoding="UTF-8"?>
<svg id="Capa_2" data-name="Capa 2" xmlns="http://www.w3.org/2000/svg" xmlns:xlink="http://www.w3.org/1999/xlink" viewBox="0 0 121.75 58.98">
  <defs>
    <style>
      .cls-1 {
        fill: url(#Degradado_sin_nombre_6);
      }

      .cls-2 {
        letter-spacing: -.02em;
      }

      .cls-3 {
        fill: url(#Degradado_sin_nombre_5);
      }

      .cls-4 {
        letter-spacing: -.01em;
      }

      .cls-5 {
        fill: #d67b84;
        font-family: ABeeZee-Regular, ABeeZee;
        font-size: 11.83px;
      }

      .cls-6 {
        letter-spacing: -.02em;
      }

      .cls-7 {
        letter-spacing: 0em;
      }
    </style>
    <linearGradient id="Degradado_sin_nombre_5" data-name="Degradado sin nombre 5" x1="49.86" y1="8.31" x2="74.44" y2="29.53" gradientUnits="userSpaceOnUse">
      <stop offset="0" stop-color="#d58e92"/>
      <stop offset="1" stop-color="#ba5e63"/>
    </linearGradient>
    <linearGradient id="Degradado_sin_nombre_6" data-name="Degradado sin nombre 6" x1="52.8" y1="7.35" x2="76.83" y2="27.42" gradientUnits="userSpaceOnUse">
      <stop offset="0" stop-color="#d58e92"/>
      <stop offset="1" stop-color="#ba5e63"/>
    </linearGradient>
  </defs>
  <g id="Formato_Principal" data-name="Formato Principal">
    <g>
      <g id="Logo_Principal" data-name="Logo Principal">
        <path class="cls-3" d="M64.9,29.72s-2.47-4.39-6.87,1.46c0,0-2.01,2.38-4.07,6.13-.27.49-.39.73-.63,1.08-.07.1-.65,1.15-1.56.12,0,0-3.99-3.91-5.98-9.11,0,0-1.63-2.8-2.6-10.32,0,0-1.12-10.01,2.16-15.66,1.1-1.9,2.55-2.19,4.74-2.16,1.94.02,2.88.12,5.67,1.23,0,0,5.4,2.4,9.57-.47,0,0,5.49-4.41,10.16-.18,0,0-4.46-3.42-9.53.63,0,0-2.98,3.1-9.93,1.17,0,0-7.91-3.22-9.53.19,0,0-6.11,8.36.33,25.65,0,0,3.32,7.22,5.58,8.78.08.06.2.03.25-.05.61-1.09,4.41-7.57,6.75-9.41,0,0,3.58-3.02,5.51.93Z"/>
        <path class="cls-1" d="M77.72,3.94c.15.77,3.46,17.77-9.2,33.72,0,0,.46-18.74.01-23.55,0-.04,0-.07-.01-.11-.02-.15-.1-.27-.22-.36-.16-.1-.31-.15-.47-.15h-.03c-.39,0-1.78,1.29-5.98,5.04-.48.43-.97.76-1.21.93-.13.1-.23.15-.32.15s-.14-.09-.14-.27.82-1.54,1.46-2.63c.64-1.09.86-1.49.83-1.98-.03-.53-.32-.61-.52-.61-.43,0-.39-.03-1.47.82v.02s-.05.03-.07.05c-1.73,1.49-3.58,2.82-5.56,3.99-1.03.59-1.98.88-2.87.88s-1.33-.42-1.33-1.27v-.38c3.93-2.39,5.38-3.79,5.51-5.2,0-.72-.33-1.14-.96-1.08-.32.03-1.33.03-3.09,1.72-1.37,1.32-1.99,2.79-2.2,4.16-1.54.73-2.18,2.3-2.37,3.82-.22,1.78.15,3.76.84,5.41.49,1.16.93,1.57,1.03,1.65-.47-.52-.73-1.67-.73-1.67-1.73-6.68.48-8.18,1.16-8.47-.02.13-.02.27-.02.4,0,1.13.57,1.7,1.73,1.7,1.44,0,2.18-.3,3.95-1.4,1.59-1,3.43-2.33,5.73-4.2.01-.01.02-.01.02-.01.09-.06.18-.1.27-.08.09.02.06.18.03.3-.03.11-.43.95-1.31,2.5-.87,1.56-1.3,2.43-1.3,2.62s.05.37.17.52c.11.15.28.23.5.23s.36-.15.83-.56c3.72-3.23,4.85-4.43,5.59-5.05.23-.2,1.38-1.25,1.65-1.12l.14,23.81c.8.8,1.74-.38,1.74-.38,1.29-1.75,3.75-6.06,4.75-7.85.29-.52.56-1.04.79-1.59,1.16-2.71,2.09-5.35,2.63-7.32.37-1.4.63-2.84.77-4.28.9-9.62-.57-12.57-.75-12.87ZM52.57,14.07c.88-.95,1.61-1.42,2.17-1.42.28,0,.43.17.43.52s-.27,1.2-1.12,2.04c-.85.83-2.04,1.53-3.27,2.27.31-1.2.9-2.46,1.79-3.41Z"/>
      </g>
      <text id="Texto_Elibeth_Villalobos" data-name="Texto Elibeth Villalobos" class="cls-5" transform="translate(0 55.88)"><tspan x="0" y="0">Od. </tspan><tspan class="cls-2" x="23.34" y="0">E</tspan><tspan x="29.67" y="0">libeth Vi</tspan><tspan class="cls-7" x="75.95" y="0">l</tspan><tspan class="cls-4" x="79.92" y="0">l</tspan><tspan x="83.84" y="0">a</tspan><tspan class="cls-6" x="91.13" y="0">l</tspan><tspan x="95.05" y="0">obos</tspan></text>
    </g>
  </g>
</svg>