<?xml version="1.0" encoding="UTF-8"?>
<svg id="Capa_1" data-name="Capa 1" xmlns="http://www.w3.org/2000/svg" xmlns:xlink="http://www.w3.org/1999/xlink" viewBox="0 0 612 792">
  <defs>
    <style>
      .cls-1 {
        font-size: 10px;
      }

      .cls-1, .cls-2, .cls-3, .cls-4 {
        fill: #d58e91;
      }

      .cls-1, .cls-3 {
        font-family: Jost-Regular, Jost;
      }

      .cls-1, .cls-3, .cls-5 {
        isolation: isolate;
      }

      .cls-6 {
        letter-spacing: .03em;
      }

      .cls-2 {
        fill-rule: evenodd;
      }

      .cls-7 {
        fill: #f5b0c2;
      }

      .cls-8 {
        letter-spacing: -.06em;
      }

      .cls-9 {
        fill: url(#Degradado_sin_nombre_11);
      }

      .cls-10 {
        opacity: .25;
      }

      .cls-3 {
        font-size: 11.11px;
      }

      .cls-11 {
        fill: #f9e7e7;
      }

      .cls-12 {
        fill: url(#Degradado_sin_nombre_4);
      }

      .cls-13 {
        fill: #fde9e9;
      }

      .cls-14 {
        fill: url(#Degradado_sin_nombre_9);
      }

      .cls-15 {
        letter-spacing: 0em;
      }

      .cls-16 {
        font-size: 18.24px;
      }

      .cls-16, .cls-17 {
        fill: #d67b84;
        font-family: Simonetta-Regular, Simonetta;
      }

      .cls-18 {
        letter-spacing: 0em;
      }

      .cls-19 {
        fill: none;
        stroke: #d58e91;
        stroke-miterlimit: 10;
      }

      .cls-20 {
        fill: url(#Degradado_sin_nombre_8);
      }

      .cls-17 {
        font-size: 10.8px;
      }
    </style>
    <linearGradient id="Degradado_sin_nombre_11" data-name="Degradado sin nombre 11" x1="231.48" y1="320.45" x2="397.78" y2="464.02" gradientUnits="userSpaceOnUse">
      <stop offset="0" stop-color="#d38c91"/>
      <stop offset="1" stop-color="#ba5f64"/>
    </linearGradient>
    <linearGradient id="Degradado_sin_nombre_9" data-name="Degradado sin nombre 9" x1="251.35" y1="313.94" x2="413.92" y2="449.72" gradientUnits="userSpaceOnUse">
      <stop offset="0" stop-color="#d38c91"/>
      <stop offset="1" stop-color="#ba5f64"/>
    </linearGradient>
    <linearGradient id="Degradado_sin_nombre_8" data-name="Degradado sin nombre 8" x1="402.83" y1="27.66" x2="430.14" y2="51.24" gradientUnits="userSpaceOnUse">
      <stop offset="0" stop-color="#d58e91"/>
      <stop offset="1" stop-color="#ba5f64"/>
    </linearGradient>
    <linearGradient id="Degradado_sin_nombre_4" data-name="Degradado sin nombre 4" x1="406.09" y1="26.59" x2="432.79" y2="48.89" gradientUnits="userSpaceOnUse">
      <stop offset="0" stop-color="#d58e91"/>
      <stop offset="1" stop-color="#ba5f64"/>
    </linearGradient>
  </defs>
  <rect class="cls-13" width="612" height="792"/>
  <path class="cls-7" d="M0,792s421.84-44.19,612-170.96v170.96H0Z"/>
  <g id="Logo_Principal" data-name="Logo Principal" class="cls-10">
    <path class="cls-9" d="M333.22,465.25s-16.7-29.73-46.5,9.84c0,0-13.61,16.08-27.56,41.5-1.81,3.29-2.64,4.92-4.29,7.33-.45.66-4.42,7.76-10.58.82,0,0-26.99-26.45-40.43-61.6,0,0-11.03-18.92-17.58-69.8,0,0-7.55-67.7,14.63-105.96,7.44-12.83,17.24-14.82,32.07-14.64,13.14.16,19.51.8,38.34,8.33,0,0,36.53,16.24,64.73-3.2,0,0,37.12-29.86,68.7-1.2,0,0-30.14-23.15-64.48,4.25,0,0-20.15,20.98-67.17,7.92,0,0-53.51-21.8-64.48,1.26,0,0-41.31,56.54,2.24,173.53,0,0,22.49,48.82,37.77,59.38.56.39,1.32.23,1.66-.36,4.15-7.37,29.8-51.2,45.64-63.65,0,0,24.25-20.44,37.29,6.26Z"/>
    <path class="cls-14" d="M419.92,290.89c1.01,5.21,23.41,120.21-62.23,228.1,0,0,3.11-126.77.07-159.31,0-.27,0-.47-.07-.74-.14-1.01-.68-1.83-1.49-2.44-1.08-.68-2.1-1.01-3.18-1.01h-.2c-2.64,0-12.04,8.73-40.45,34.09-3.25,2.91-6.56,5.14-8.19,6.29-.88.68-1.56,1.01-2.16,1.01s-.95-.61-.95-1.83,5.55-10.42,9.88-17.79c4.33-7.37,5.82-10.08,5.61-13.39-.2-3.59-2.16-4.13-3.52-4.13-2.91,0-2.64-.2-9.94,5.55l-.07.14c-.14.07-.27.2-.41.34-11.7,10.08-24.22,19.08-37.61,26.99-6.97,3.99-13.39,5.95-19.41,5.95s-9-2.84-9-8.59v-2.57c26.59-16.17,36.39-25.64,37.27-35.18,0-4.87-2.23-7.71-6.49-7.31-2.16.2-9,.2-20.9,11.64-9.27,8.93-13.46,18.87-14.88,28.14-10.42,4.94-14.75,15.56-16.03,25.84-1.49,12.04,1.01,25.44,5.68,36.6,3.31,7.85,6.29,10.62,6.97,11.16-3.18-3.52-4.94-11.3-4.94-11.3-11.7-45.19,3.25-55.33,7.85-57.3-.14.88-.14,1.83-.14,2.71,0,7.64,3.86,11.5,11.7,11.5,9.74,0,14.75-2.03,26.72-9.47,10.76-6.76,23.2-15.76,38.76-28.41.07-.07.14-.07.14-.07.61-.41,1.22-.68,1.83-.54.61.14.41,1.22.2,2.03-.2.74-2.91,6.43-8.86,16.91-5.89,10.55-8.79,16.44-8.79,17.72s.34,2.5,1.15,3.52c.74,1.01,1.89,1.56,3.38,1.56s2.44-1.01,5.61-3.79c25.16-21.85,32.81-29.97,37.81-34.16,1.56-1.35,9.34-8.46,11.16-7.58l.95,161.07c5.41,5.41,11.77-2.57,11.77-2.57,8.73-11.84,25.37-40.99,32.13-53.1,1.96-3.52,3.79-7.04,5.34-10.76,7.85-18.33,14.14-36.19,17.79-49.52,2.5-9.47,4.26-19.21,5.21-28.95,6.09-65.08-3.86-85.03-5.07-87.06ZM249.79,359.42c5.95-6.43,10.89-9.61,14.68-9.61,1.89,0,2.91,1.15,2.91,3.52s-1.83,8.12-7.58,13.8c-5.75,5.61-13.8,10.35-22.12,15.36,2.1-8.12,6.09-16.64,12.11-23.07Z"/>
  </g>
  <g>
    <g>
      <rect class="cls-11" x="16.11" y="633.23" width="106.18" height="106.18"/>
      <path class="cls-4" d="M57.3,647.23v-1.27c0,.71-.58,1.27-1.27,1.27"/>
      <path class="cls-4" d="M59.43,643.85h-.84c-.71,0-1.27.58-1.27,1.27v2.13h3.4v-2.13c0-.71-.58-1.27-1.27-1.27h-.02Z"/>
      <path class="cls-4" d="M74.28,647.23v-1.27c0,.71-.58,1.27-1.27,1.27"/>
      <path class="cls-4" d="M76.41,643.85h-.84c-.71,0-1.27.58-1.27,1.27v2.13h3.4v-2.13c0-.71-.58-1.27-1.27-1.27h-.02Z"/>
      <rect class="cls-4" x="81.08" y="643.85" width="3.4" height="3.4" rx=".39" ry=".39"/>
      <path class="cls-4" d="M53.9,648.52v.84c0,.71.58,1.27,1.27,1.27h2.13v-3.4h-2.13c-.71,0-1.27.58-1.27,1.27v.02Z"/>
      <rect class="cls-4" x="57.3" y="647.23" width="3.4" height="3.4"/>
      <path class="cls-4" d="M64.1,650.63v-1.27c0,.71-.58,1.27-1.27,1.27"/>
      <path class="cls-4" d="M61.97,650.63c-.71,0-1.27-.58-1.27-1.27v1.27"/>
      <path class="cls-4" d="M67.5,647.23h-2.13c-.71,0-1.27.58-1.27,1.27v2.13h3.4v-3.4Z"/>
      <rect class="cls-4" x="67.5" y="647.23" width="3.4" height="3.4"/>
      <rect class="cls-4" x="70.88" y="647.23" width="3.4" height="3.4"/>
      <path class="cls-4" d="M76.41,650.63h-2.13v-3.4h3.4v2.13c0,.71-.58,1.27-1.27,1.27Z"/>
      <path class="cls-4" d="M56.03,650.63c.71,0,1.27.58,1.27,1.27v-1.27"/>
      <path class="cls-4" d="M57.3,654.03v-1.27c0,.71-.58,1.27-1.27,1.27"/>
      <rect class="cls-4" x="57.3" y="650.63" width="3.4" height="3.4"/>
      <rect class="cls-4" x="60.7" y="650.63" width="3.4" height="3.4"/>
      <rect class="cls-4" x="64.1" y="650.63" width="3.4" height="3.4"/>
      <path class="cls-4" d="M67.5,650.63v1.27c0-.71.58-1.27,1.27-1.27"/>
      <path class="cls-4" d="M53.9,655.3v.84c0,.71.58,1.27,1.27,1.27h2.13v-3.4h-2.13c-.71,0-1.27.58-1.27,1.27v.02Z"/>
      <path class="cls-4" d="M59.43,657.43h-2.13v-3.4h3.4v2.13c0,.71-.58,1.27-1.27,1.27Z"/>
      <path class="cls-4" d="M60.7,654.03v1.27c0-.71.58-1.27,1.27-1.27"/>
      <path class="cls-4" d="M62.81,654.03c.71,0,1.27.58,1.27,1.27v-1.27"/>
      <path class="cls-4" d="M64.1,655.3v.84c0,.71.58,1.27,1.27,1.27h.84c.71,0,1.27-.58,1.27-1.27v-2.13h-3.4v1.27l.02.02Z"/>
      <rect class="cls-4" x="70.88" y="654.03" width="3.4" height="3.4" rx=".39" ry=".39"/>
      <path class="cls-4" d="M81.08,654.03h-2.13c-.71,0-1.27.58-1.27,1.27v2.13h3.4v-3.4Z"/>
      <path class="cls-4" d="M81.08,654.03h2.13c.71,0,1.27.58,1.27,1.27v2.13h-3.4v-3.4Z"/>
      <path class="cls-4" d="M62.81,657.43h-.84c-.71,0-1.27.58-1.27,1.27v2.13h3.4v-2.13c0-.71-.58-1.27-1.27-1.27h-.02Z"/>
      <rect class="cls-4" x="67.5" y="657.43" width="3.4" height="3.4" rx=".39" ry=".39"/>
      <path class="cls-4" d="M77.68,660.83v-1.27c0,.71-.58,1.27-1.27,1.27"/>
      <rect class="cls-4" x="77.68" y="657.43" width="3.4" height="3.4"/>
      <path class="cls-4" d="M83.22,660.83h-2.13v-3.4h3.4v2.13c0,.71-.58,1.27-1.27,1.27Z"/>
      <path class="cls-4" d="M56.03,660.83h-.84c-.71,0-1.27.58-1.27,1.27v2.13h3.4v-2.13c0-.71-.58-1.27-1.27-1.27h-.02Z"/>
      <rect class="cls-4" x="60.7" y="660.83" width="3.4" height="3.4"/>
      <path class="cls-4" d="M70.88,662.1v.84c0,.71.58,1.27,1.27,1.27h2.13v-3.4h-2.13c-.71,0-1.27.58-1.27,1.27v.02Z"/>
      <rect class="cls-4" x="74.28" y="660.83" width="3.4" height="3.4"/>
      <path class="cls-4" d="M79.82,664.23h-2.13v-3.4h3.4v2.13c0,.71-.58,1.27-1.27,1.27Z"/>
      <path class="cls-4" d="M81.08,660.83v1.27c0-.71.58-1.27,1.27-1.27"/>
      <path class="cls-4" d="M53.9,665.5v.84c0,.71.58,1.27,1.27,1.27h.84c.71,0,1.27-.58,1.27-1.27v-2.13h-3.4v1.27l.02.02Z"/>
      <path class="cls-4" d="M60.7,665.5v.84c0,.71.58,1.27,1.27,1.27h.84c.71,0,1.27-.58,1.27-1.27v-2.13h-3.4v1.27l.02.02Z"/>
      <path class="cls-4" d="M69.61,664.23h-.84c-.71,0-1.27.58-1.27,1.27v2.13h3.4v-2.13c0-.71-.58-1.27-1.27-1.27h-.02Z"/>
      <path class="cls-4" d="M73.01,664.23c.71,0,1.27.58,1.27,1.27v-1.27"/>
      <path class="cls-4" d="M74.28,665.5v.84c0,.71.58,1.27,1.27,1.27h.84c.71,0,1.27-.58,1.27-1.27v-2.13h-3.4v1.27l.02.02Z"/>
      <path class="cls-4" d="M77.68,664.23v1.27c0-.71.58-1.27,1.27-1.27"/>
      <path class="cls-4" d="M83.22,664.23h-.84c-.71,0-1.27.58-1.27,1.27v2.13h3.4v-2.13c0-.71-.58-1.27-1.27-1.27h-.02Z"/>
      <rect class="cls-4" x="67.5" y="667.63" width="3.4" height="3.4"/>
      <path class="cls-4" d="M72.17,671.01c-.71,0-1.27-.58-1.27-1.27v1.27"/>
      <path class="cls-4" d="M81.08,668.9v.84c0,.71.58,1.27,1.27,1.27h.84c.71,0,1.27-.58,1.27-1.27v-2.13h-3.4v1.27l.02.02Z"/>
      <path class="cls-4" d="M26.72,672.3v.84c0,.71.58,1.27,1.27,1.27h2.13v-3.4h-2.13c-.71,0-1.27.58-1.27,1.27v.02Z"/>
      <rect class="cls-4" x="30.12" y="671.01" width="3.4" height="3.4"/>
      <rect class="cls-4" x="33.52" y="671.01" width="3.4" height="3.4"/>
      <rect class="cls-4" x="36.92" y="671.01" width="3.4" height="3.4"/>
      <path class="cls-4" d="M40.32,671.01h2.13c.71,0,1.27.58,1.27,1.27v2.13h-3.4v-3.4Z"/>
      <path class="cls-4" d="M47.1,672.3v.84c0,.71.58,1.27,1.27,1.27h2.13v-3.4h-2.13c-.71,0-1.27.58-1.27,1.27v.02Z"/>
      <rect class="cls-4" x="50.5" y="671.01" width="3.4" height="3.4"/>
      <rect class="cls-4" x="53.9" y="671.01" width="3.4" height="3.4"/>
      <rect class="cls-4" x="57.3" y="671.01" width="3.4" height="3.4"/>
      <path class="cls-4" d="M64.1,673.15v-.84c0-.71-.58-1.27-1.27-1.27h-2.13v3.4h2.13c.71,0,1.27-.58,1.27-1.27v-.02Z"/>
      <path class="cls-4" d="M68.77,674.41h2.13v-3.4h-3.4v2.13c0,.71.58,1.27,1.27,1.27Z"/>
      <rect class="cls-4" x="70.88" y="671.01" width="3.4" height="3.4"/>
      <rect class="cls-4" x="74.28" y="671.01" width="3.4" height="3.4"/>
      <path class="cls-4" d="M77.68,671.01h2.13c.71,0,1.27.58,1.27,1.27v2.13h-3.4v-3.4Z"/>
      <path class="cls-4" d="M84.48,674.41v-1.27c0,.71-.58,1.27-1.27,1.27"/>
      <path class="cls-4" d="M82.35,674.41c-.71,0-1.27-.58-1.27-1.27v1.27"/>
      <path class="cls-4" d="M86.59,671.01h-.84c-.71,0-1.27.58-1.27,1.27v2.13h3.4v-2.13c0-.71-.58-1.27-1.27-1.27h-.02Z"/>
      <path class="cls-4" d="M93.4,671.01h-.84c-.71,0-1.27.58-1.27,1.27v2.13h3.4v-2.13c0-.71-.58-1.27-1.27-1.27h-.02Z"/>
      <path class="cls-4" d="M95.95,674.41c-.71,0-1.27-.58-1.27-1.27v1.27"/>
      <rect class="cls-4" x="98.06" y="671.01" width="3.4" height="3.4" rx=".39" ry=".39"/>
      <rect class="cls-4" x="104.86" y="671.01" width="3.4" height="3.4" rx=".39" ry=".39"/>
      <path class="cls-4" d="M35.65,674.41c.71,0,1.27.58,1.27,1.27v-1.27"/>
      <path class="cls-4" d="M38.18,677.81h2.13v-3.4h-3.4v2.13c0,.71.58,1.27,1.27,1.27Z"/>
      <path class="cls-4" d="M42.43,677.81h-2.13v-3.4h3.4v2.13c0,.71-.58,1.27-1.27,1.27Z"/>
      <path class="cls-4" d="M49.23,674.41c.71,0,1.27.58,1.27,1.27v-1.27"/>
      <path class="cls-4" d="M50.5,677.81v-1.27c0,.71-.58,1.27-1.27,1.27"/>
      <rect class="cls-4" x="50.5" y="674.41" width="3.4" height="3.4"/>
      <path class="cls-4" d="M53.9,674.41v1.27c0-.71.58-1.27,1.27-1.27"/>
      <path class="cls-4" d="M56.03,674.41c.71,0,1.27.58,1.27,1.27v-1.27"/>
      <rect class="cls-4" x="57.3" y="674.41" width="3.4" height="3.4"/>
      <path class="cls-4" d="M60.7,674.41v1.27c0-.71.58-1.27,1.27-1.27"/>
      <path class="cls-4" d="M73.01,674.41c.71,0,1.27.58,1.27,1.27v-1.27"/>
      <rect class="cls-4" x="74.28" y="674.41" width="3.4" height="3.4"/>
      <rect class="cls-4" x="77.68" y="674.41" width="3.4" height="3.4"/>
      <rect class="cls-4" x="81.08" y="674.41" width="3.4" height="3.4"/>
      <rect class="cls-4" x="84.48" y="674.41" width="3.4" height="3.4"/>
      <path class="cls-4" d="M89.15,677.81c-.71,0-1.27-.58-1.27-1.27v1.27"/>
      <path class="cls-4" d="M92.55,677.81h2.13v-3.4h-3.4v2.13c0,.71.58,1.27,1.27,1.27Z"/>
      <path class="cls-4" d="M94.66,674.41h2.13c.71,0,1.27.58,1.27,1.27v2.13h-3.4v-3.4Z"/>
      <rect class="cls-4" x="108.27" y="674.41" width="3.4" height="3.4" rx=".39" ry=".39"/>
      <path class="cls-4" d="M26.72,679.08v.84c0,.71.58,1.27,1.27,1.27h2.13v-3.4h-2.13c-.71,0-1.27.58-1.27,1.27v.02Z"/>
      <rect class="cls-4" x="30.12" y="677.81" width="3.4" height="3.4"/>
      <path class="cls-4" d="M33.52,677.81h2.13c.71,0,1.27.58,1.27,1.27v2.13h-3.4v-3.4Z"/>
      <path class="cls-4" d="M43.72,679.08v.84c0,.71.58,1.27,1.27,1.27h2.13v-3.4h-2.13c-.71,0-1.27.58-1.27,1.27v.02Z"/>
      <rect class="cls-4" x="47.1" y="677.81" width="3.4" height="3.4"/>
      <rect class="cls-4" x="50.5" y="677.81" width="3.4" height="3.4"/>
      <path class="cls-4" d="M57.3,681.22v-1.27c0,.71-.58,1.27-1.27,1.27"/>
      <path class="cls-4" d="M55.19,681.22c-.71,0-1.27-.58-1.27-1.27v1.27"/>
      <rect class="cls-4" x="57.3" y="677.81" width="3.4" height="3.4"/>
      <path class="cls-4" d="M64.1,681.22v-1.27c0,.71-.58,1.27-1.27,1.27"/>
      <path class="cls-4" d="M61.97,681.22c-.71,0-1.27-.58-1.27-1.27v1.27"/>
      <path class="cls-4" d="M67.5,677.81h-2.13c-.71,0-1.27.58-1.27,1.27v2.13h3.4v-3.4Z"/>
      <path class="cls-4" d="M70.88,679.95v-.84c0-.71-.58-1.27-1.27-1.27h-2.13v3.4h2.13c.71,0,1.27-.58,1.27-1.27v-.02Z"/>
      <path class="cls-4" d="M75.57,681.22h2.13v-3.4h-3.4v2.13c0,.71.58,1.27,1.27,1.27Z"/>
      <path class="cls-4" d="M79.82,681.22h-2.13v-3.4h3.4v2.13c0,.71-.58,1.27-1.27,1.27Z"/>
      <path class="cls-4" d="M81.08,677.81v1.27c0-.71.58-1.27,1.27-1.27"/>
      <path class="cls-4" d="M83.22,677.81c.71,0,1.27.58,1.27,1.27v-1.27"/>
      <path class="cls-4" d="M84.48,681.22v-1.27c0,.71-.58,1.27-1.27,1.27"/>
      <rect class="cls-4" x="84.48" y="677.81" width="3.4" height="3.4"/>
      <path class="cls-4" d="M91.28,679.95v-.84c0-.71-.58-1.27-1.27-1.27h-2.13v3.4h2.13c.71,0,1.27-.58,1.27-1.27v-.02Z"/>
      <path class="cls-4" d="M93.4,677.81c.71,0,1.27.58,1.27,1.27v-1.27"/>
      <path class="cls-4" d="M94.66,679.08v.84c0,.71.58,1.27,1.27,1.27h.84c.71,0,1.27-.58,1.27-1.27v-2.13h-3.4v1.27l.02.02Z"/>
      <rect class="cls-4" x="101.46" y="677.81" width="3.4" height="3.4" rx=".39" ry=".39"/>
      <path class="cls-4" d="M32.25,681.22c.71,0,1.27.58,1.27,1.27v-1.27"/>
      <path class="cls-4" d="M33.52,684.62v-1.27c0,.71-.58,1.27-1.27,1.27"/>
      <rect class="cls-4" x="33.52" y="681.22" width="3.4" height="3.4"/>
      <path class="cls-4" d="M42.43,681.22h-.84c-.71,0-1.27.58-1.27,1.27v2.13h3.4v-2.13c0-.71-.58-1.27-1.27-1.27h-.02Z"/>
      <path class="cls-4" d="M44.99,684.62c-.71,0-1.27-.58-1.27-1.27v1.27"/>
      <path class="cls-4" d="M49.23,681.22c.71,0,1.27.58,1.27,1.27v-1.27"/>
      <path class="cls-4" d="M50.5,684.62v-1.27c0,.71-.58,1.27-1.27,1.27"/>
      <rect class="cls-4" x="50.5" y="681.22" width="3.4" height="3.4"/>
      <rect class="cls-4" x="53.9" y="681.22" width="3.4" height="3.4"/>
      <rect class="cls-4" x="57.3" y="681.22" width="3.4" height="3.4"/>
      <rect class="cls-4" x="60.7" y="681.22" width="3.4" height="3.4"/>
      <rect class="cls-4" x="64.1" y="681.22" width="3.4" height="3.4"/>
      <path class="cls-4" d="M67.5,681.22v1.27c0-.71.58-1.27,1.27-1.27"/>
      <path class="cls-4" d="M81.08,682.48v.84c0,.71.58,1.27,1.27,1.27h2.13v-3.4h-2.13c-.71,0-1.27.58-1.27,1.27v.02Z"/>
      <path class="cls-4" d="M86.59,684.62h-2.13v-3.4h3.4v2.13c0,.71-.58,1.27-1.27,1.27Z"/>
      <path class="cls-4" d="M87.88,681.22v1.27c0-.71.58-1.27,1.27-1.27"/>
      <path class="cls-4" d="M30.12,685.88v.84c0,.71.58,1.27,1.27,1.27h2.13v-3.4h-2.13c-.71,0-1.27.58-1.27,1.27v.02Z"/>
      <rect class="cls-4" x="33.52" y="684.62" width="3.4" height="3.4"/>
      <path class="cls-4" d="M40.32,688.02v-1.27c0,.71-.58,1.27-1.27,1.27"/>
      <path class="cls-4" d="M38.18,688.02c-.71,0-1.27-.58-1.27-1.27v1.27"/>
      <rect class="cls-4" x="40.32" y="684.62" width="3.4" height="3.4"/>
      <rect class="cls-4" x="43.72" y="684.62" width="3.4" height="3.4"/>
      <rect class="cls-4" x="47.1" y="684.62" width="3.4" height="3.4"/>
      <rect class="cls-4" x="50.5" y="684.62" width="3.4" height="3.4"/>
      <rect class="cls-4" x="53.9" y="684.62" width="3.4" height="3.4"/>
      <rect class="cls-4" x="57.3" y="684.62" width="3.4" height="3.4"/>
      <path class="cls-4" d="M60.7,684.62v1.27c0-.71.58-1.27,1.27-1.27"/>
      <path class="cls-4" d="M62.81,684.62c.71,0,1.27.58,1.27,1.27v-1.27"/>
      <path class="cls-4" d="M61.97,688.02c-.71,0-1.27-.58-1.27-1.27v1.27"/>
      <path class="cls-4" d="M64.1,685.88v.84c0,.71.58,1.27,1.27,1.27h.84c.71,0,1.27-.58,1.27-1.27v-2.13h-3.4v1.27l.02.02Z"/>
      <rect class="cls-4" x="70.88" y="684.62" width="3.4" height="3.4" rx=".39" ry=".39"/>
      <rect class="cls-4" x="77.68" y="684.62" width="3.4" height="3.4" rx=".39" ry=".39"/>
      <path class="cls-4" d="M87.88,688.02v-1.27c0,.71-.58,1.27-1.27,1.27"/>
      <path class="cls-4" d="M91.28,684.62h-2.13c-.71,0-1.27.58-1.27,1.27v2.13h3.4v-3.4Z"/>
      <rect class="cls-4" x="91.28" y="684.62" width="3.4" height="3.4"/>
      <rect class="cls-4" x="94.66" y="684.62" width="3.4" height="3.4"/>
      <path class="cls-4" d="M101.46,686.73v-.84c0-.71-.58-1.27-1.27-1.27h-2.13v3.4h2.13c.71,0,1.27-.58,1.27-1.27v-.02Z"/>
      <path class="cls-4" d="M104.86,685.88v.84c0,.71.58,1.27,1.27,1.27h2.13v-3.4h-2.13c-.71,0-1.27.58-1.27,1.27v.02Z"/>
      <path class="cls-4" d="M111.67,686.73v-.84c0-.71-.58-1.27-1.27-1.27h-2.13v3.4h2.13c.71,0,1.27-.58,1.27-1.27v-.02Z"/>
      <path class="cls-4" d="M28.85,688.02h-.84c-.71,0-1.27.58-1.27,1.27v2.13h3.4v-2.13c0-.71-.58-1.27-1.27-1.27h-.02Z"/>
      <path class="cls-4" d="M32.25,688.02c.71,0,1.27.58,1.27,1.27v-1.27"/>
      <rect class="cls-4" x="33.52" y="688.02" width="3.4" height="3.4"/>
      <rect class="cls-4" x="36.92" y="688.02" width="3.4" height="3.4"/>
      <path class="cls-4" d="M42.43,691.42h-2.13v-3.4h3.4v2.13c0,.71-.58,1.27-1.27,1.27Z"/>
      <path class="cls-4" d="M43.72,688.02v1.27c0-.71.58-1.27,1.27-1.27"/>
      <path class="cls-4" d="M52.63,688.02c.71,0,1.27.58,1.27,1.27v-1.27"/>
      <path class="cls-4" d="M55.19,691.42h2.13v-3.4h-3.4v2.13c0,.71.58,1.27,1.27,1.27Z"/>
      <rect class="cls-4" x="57.3" y="688.02" width="3.4" height="3.4"/>
      <path class="cls-4" d="M60.7,688.02h2.13c.71,0,1.27.58,1.27,1.27v2.13h-3.4v-3.4Z"/>
      <rect class="cls-4" x="67.5" y="688.02" width="3.4" height="3.4" rx=".39" ry=".39"/>
      <path class="cls-4" d="M81.08,689.28v.84c0,.71.58,1.27,1.27,1.27h2.13v-3.4h-2.13c-.71,0-1.27.58-1.27,1.27v.02Z"/>
      <rect class="cls-4" x="84.48" y="688.02" width="3.4" height="3.4"/>
      <rect class="cls-4" x="87.88" y="688.02" width="3.4" height="3.4"/>
      <rect class="cls-4" x="91.28" y="688.02" width="3.4" height="3.4"/>
      <rect class="cls-4" x="94.66" y="688.02" width="3.4" height="3.4"/>
      <path class="cls-4" d="M98.06,688.02v1.27c0-.71.58-1.27,1.27-1.27"/>
      <rect class="cls-4" x="26.72" y="691.42" width="3.4" height="3.4"/>
      <rect class="cls-4" x="33.52" y="691.42" width="3.4" height="3.4"/>
      <path class="cls-4" d="M36.92,691.42v1.27c0-.71.58-1.27,1.27-1.27"/>
      <path class="cls-4" d="M38.18,694.8c-.71,0-1.27-.58-1.27-1.27v1.27"/>
      <path class="cls-4" d="M47.1,692.68v.84c0,.71.58,1.27,1.27,1.27h2.13v-3.4h-2.13c-.71,0-1.27.58-1.27,1.27v.02Z"/>
      <path class="cls-4" d="M50.5,691.42h2.13c.71,0,1.27.58,1.27,1.27v2.13h-3.4v-3.4Z"/>
      <path class="cls-4" d="M56.03,691.42c.71,0,1.27.58,1.27,1.27v-1.27"/>
      <rect class="cls-4" x="57.3" y="691.42" width="3.4" height="3.4"/>
      <rect class="cls-4" x="60.7" y="691.42" width="3.4" height="3.4"/>
      <path class="cls-4" d="M70.88,692.68v.84c0,.71.58,1.27,1.27,1.27h2.13v-3.4h-2.13c-.71,0-1.27.58-1.27,1.27v.02Z"/>
      <path class="cls-4" d="M77.68,693.53v-.84c0-.71-.58-1.27-1.27-1.27h-2.13v3.4h2.13c.71,0,1.27-.58,1.27-1.27v-.02Z"/>
      <path class="cls-4" d="M83.22,691.42c.71,0,1.27.58,1.27,1.27v-1.27"/>
      <rect class="cls-4" x="84.48" y="691.42" width="3.4" height="3.4"/>
      <path class="cls-4" d="M90,694.8h-2.13v-3.4h3.4v2.13c0,.71-.58,1.27-1.27,1.27Z"/>
      <path class="cls-4" d="M91.28,691.42v1.27c0-.71.58-1.27,1.27-1.27"/>
      <path class="cls-4" d="M93.4,691.42c.71,0,1.27.58,1.27,1.27v-1.27"/>
      <path class="cls-4" d="M94.66,692.68v.84c0,.71.58,1.27,1.27,1.27h.84c.71,0,1.27-.58,1.27-1.27v-2.13h-3.4v1.27l.02.02Z"/>
      <path class="cls-4" d="M101.46,692.68v.84c0,.71.58,1.27,1.27,1.27h2.13v-3.4h-2.13c-.71,0-1.27.58-1.27,1.27v.02Z"/>
      <rect class="cls-4" x="104.86" y="691.42" width="3.4" height="3.4"/>
      <path class="cls-4" d="M108.27,691.42h2.13c.71,0,1.27.58,1.27,1.27v2.13h-3.4v-3.4Z"/>
      <rect class="cls-4" x="26.72" y="694.8" width="3.4" height="3.4"/>
      <path class="cls-4" d="M34.78,698.2h2.13v-3.4h-3.4v2.13c0,.71.58,1.27,1.27,1.27Z"/>
      <path class="cls-4" d="M36.92,694.8h2.13c.71,0,1.27.58,1.27,1.27v2.13h-3.4v-3.4Z"/>
      <path class="cls-4" d="M41.59,698.2c-.71,0-1.27-.58-1.27-1.27v1.27"/>
      <rect class="cls-4" x="43.72" y="694.8" width="3.4" height="3.4" rx=".39" ry=".39"/>
      <path class="cls-4" d="M49.23,694.8c.71,0,1.27.58,1.27,1.27v-1.27"/>
      <path class="cls-4" d="M50.5,698.2v-1.27c0,.71-.58,1.27-1.27,1.27"/>
      <rect class="cls-4" x="50.5" y="694.8" width="3.4" height="3.4"/>
      <path class="cls-4" d="M57.3,698.2v-1.27c0,.71-.58,1.27-1.27,1.27"/>
      <path class="cls-4" d="M55.19,698.2c-.71,0-1.27-.58-1.27-1.27v1.27"/>
      <rect class="cls-4" x="57.3" y="694.8" width="3.4" height="3.4"/>
      <rect class="cls-4" x="60.7" y="694.8" width="3.4" height="3.4"/>
      <path class="cls-4" d="M69.61,694.8h-.84c-.71,0-1.27.58-1.27,1.27v2.13h3.4v-2.13c0-.71-.58-1.27-1.27-1.27h-.02Z"/>
      <path class="cls-4" d="M84.48,698.2v-1.27c0,.71-.58,1.27-1.27,1.27"/>
      <rect class="cls-4" x="84.48" y="694.8" width="3.4" height="3.4"/>
      <path class="cls-4" d="M87.88,694.8v1.27c0-.71.58-1.27,1.27-1.27"/>
      <path class="cls-4" d="M89.15,698.2c-.71,0-1.27-.58-1.27-1.27v1.27"/>
      <path class="cls-4" d="M103.6,694.8c.71,0,1.27.58,1.27,1.27v-1.27"/>
      <path class="cls-4" d="M106.13,698.2h2.13v-3.4h-3.4v2.13c0,.71.58,1.27,1.27,1.27Z"/>
      <rect class="cls-4" x="108.27" y="694.8" width="3.4" height="3.4"/>
      <path class="cls-4" d="M26.72,699.49v.84c0,.71.58,1.27,1.27,1.27h.84c.71,0,1.27-.58,1.27-1.27v-2.13h-3.4v1.27l.02.02Z"/>
      <path class="cls-4" d="M35.65,698.2c.71,0,1.27.58,1.27,1.27v-1.27"/>
      <path class="cls-4" d="M38.18,701.6h2.13v-3.4h-3.4v2.13c0,.71.58,1.27,1.27,1.27Z"/>
      <path class="cls-4" d="M43.72,700.33v-.84c0-.71-.58-1.27-1.27-1.27h-2.13v3.4h2.13c.71,0,1.27-.58,1.27-1.27v-.02Z"/>
      <path class="cls-4" d="M47.1,699.49v.84c0,.71.58,1.27,1.27,1.27h2.13v-3.4h-2.13c-.71,0-1.27.58-1.27,1.27v.02Z"/>
      <rect class="cls-4" x="50.5" y="698.2" width="3.4" height="3.4"/>
      <rect class="cls-4" x="53.9" y="698.2" width="3.4" height="3.4"/>
      <rect class="cls-4" x="57.3" y="698.2" width="3.4" height="3.4"/>
      <path class="cls-4" d="M62.81,701.6h-2.13v-3.4h3.4v2.13c0,.71-.58,1.27-1.27,1.27Z"/>
      <path class="cls-4" d="M67.5,699.49v.84c0,.71.58,1.27,1.27,1.27h.84c.71,0,1.27-.58,1.27-1.27v-2.13h-3.4v1.27l.02.02Z"/>
      <path class="cls-4" d="M77.68,698.2h-2.13c-.71,0-1.27.58-1.27,1.27v2.13h3.4v-3.4Z"/>
      <rect class="cls-4" x="77.68" y="698.2" width="3.4" height="3.4"/>
      <rect class="cls-4" x="81.08" y="698.2" width="3.4" height="3.4"/>
      <rect class="cls-4" x="84.48" y="698.2" width="3.4" height="3.4"/>
      <rect class="cls-4" x="87.88" y="698.2" width="3.4" height="3.4"/>
      <rect class="cls-4" x="91.28" y="698.2" width="3.4" height="3.4"/>
      <rect class="cls-4" x="94.66" y="698.2" width="3.4" height="3.4"/>
      <path class="cls-4" d="M101.46,700.33v-.84c0-.71-.58-1.27-1.27-1.27h-2.13v3.4h2.13c.71,0,1.27-.58,1.27-1.27v-.02Z"/>
      <path class="cls-4" d="M107,698.2c.71,0,1.27.58,1.27,1.27v-1.27"/>
      <rect class="cls-4" x="108.27" y="698.2" width="3.4" height="3.4"/>
      <path class="cls-4" d="M52.63,701.6c.71,0,1.27.58,1.27,1.27v-1.27"/>
      <rect class="cls-4" x="53.9" y="701.6" width="3.4" height="3.4"/>
      <path class="cls-4" d="M57.3,701.6v1.27c0-.71.58-1.27,1.27-1.27"/>
      <path class="cls-4" d="M58.57,705c-.71,0-1.27-.58-1.27-1.27v1.27"/>
      <rect class="cls-4" x="74.28" y="701.6" width="3.4" height="3.4"/>
      <path class="cls-4" d="M77.68,701.6v1.27c0-.71.58-1.27,1.27-1.27"/>
      <path class="cls-4" d="M79.82,701.6c.71,0,1.27.58,1.27,1.27v-1.27"/>
      <rect class="cls-4" x="81.08" y="701.6" width="3.4" height="3.4"/>
      <path class="cls-4" d="M84.48,701.6v1.27c0-.71.58-1.27,1.27-1.27"/>
      <path class="cls-4" d="M93.4,701.6c.71,0,1.27.58,1.27,1.27v-1.27"/>
      <rect class="cls-4" x="94.66" y="701.6" width="3.4" height="3.4"/>
      <path class="cls-4" d="M98.06,701.6v1.27c0-.71.58-1.27,1.27-1.27"/>
      <path class="cls-4" d="M108.27,705v-1.27c0,.71-.58,1.27-1.27,1.27"/>
      <rect class="cls-4" x="108.27" y="701.6" width="3.4" height="3.4"/>
      <path class="cls-4" d="M55.19,708.4h2.13v-3.4h-3.4v2.13c0,.71.58,1.27,1.27,1.27h0Z"/>
      <rect class="cls-4" x="57.3" y="705" width="3.4" height="3.4"/>
      <rect class="cls-4" x="60.7" y="705" width="3.4" height="3.4"/>
      <rect class="cls-4" x="64.1" y="705" width="3.4" height="3.4"/>
      <path class="cls-4" d="M70.88,707.11v-.84c0-.71-.58-1.27-1.27-1.27h-2.13v3.4h2.13c.71,0,1.27-.58,1.27-1.27v-.02Z"/>
      <path class="cls-4" d="M74.28,706.26v.84c0,.71.58,1.27,1.27,1.27h.84c.71,0,1.27-.58,1.27-1.27v-2.13h-3.4v1.27l.02.02Z"/>
      <rect class="cls-4" x="81.08" y="705" width="3.4" height="3.4"/>
      <rect class="cls-4" x="87.88" y="705" width="3.4" height="3.4" rx=".39" ry=".39"/>
      <rect class="cls-4" x="94.66" y="705" width="3.4" height="3.4"/>
      <path class="cls-4" d="M99.35,708.4c-.71,0-1.27-.58-1.27-1.27v1.27"/>
      <path class="cls-4" d="M101.46,706.26v.84c0,.71.58,1.27,1.27,1.27h2.13v-3.4h-2.13c-.71,0-1.27.58-1.27,1.27v.02Z"/>
      <rect class="cls-4" x="104.86" y="705" width="3.4" height="3.4"/>
      <path class="cls-4" d="M110.38,708.4h-2.13v-3.4h3.4v2.13c0,.71-.58,1.27-1.27,1.27h0Z"/>
      <path class="cls-4" d="M56.03,708.4c.71,0,1.27.58,1.27,1.27v-1.27"/>
      <path class="cls-4" d="M57.3,709.67v.84c0,.71.58,1.27,1.27,1.27h.84c.71,0,1.27-.58,1.27-1.27v-2.13h-3.4v1.27l.02.02Z"/>
      <path class="cls-4" d="M60.7,708.4v1.27c0-.71.58-1.27,1.27-1.27"/>
      <path class="cls-4" d="M62.81,708.4c.71,0,1.27.58,1.27,1.27v-1.27"/>
      <rect class="cls-4" x="64.1" y="708.4" width="3.4" height="3.4"/>
      <path class="cls-4" d="M67.5,708.4v1.27c0-.71.58-1.27,1.27-1.27"/>
      <path class="cls-4" d="M70.88,711.8v-1.27c0,.71-.58,1.27-1.27,1.27"/>
      <path class="cls-4" d="M68.77,711.8c-.71,0-1.27-.58-1.27-1.27v1.27"/>
      <path class="cls-4" d="M73.01,708.4h-.84c-.71,0-1.27.58-1.27,1.27v2.13h3.4v-2.13c0-.71-.58-1.27-1.27-1.27h-.02Z"/>
      <path class="cls-4" d="M75.57,711.8c-.71,0-1.27-.58-1.27-1.27v1.27"/>
      <rect class="cls-4" x="81.08" y="708.4" width="3.4" height="3.4"/>
      <path class="cls-4" d="M85.75,711.8c-.71,0-1.27-.58-1.27-1.27v1.27"/>
      <path class="cls-4" d="M94.66,711.8v-1.27c0,.71-.58,1.27-1.27,1.27"/>
      <rect class="cls-4" x="94.66" y="708.4" width="3.4" height="3.4"/>
      <path class="cls-4" d="M98.06,708.4h2.13c.71,0,1.27.58,1.27,1.27v2.13h-3.4v-3.4h0Z"/>
      <path class="cls-4" d="M56.03,711.8h-.84c-.71,0-1.27.58-1.27,1.27v2.13h3.4v-2.13c0-.71-.58-1.27-1.27-1.27h-.02Z"/>
      <path class="cls-4" d="M58.57,715.18c-.71,0-1.27-.58-1.27-1.27v1.27"/>
      <path class="cls-4" d="M65.37,715.18h2.13v-3.4h-3.4v2.13c0,.71.58,1.27,1.27,1.27h0Z"/>
      <rect class="cls-4" x="67.5" y="711.8" width="3.4" height="3.4"/>
      <rect class="cls-4" x="70.88" y="711.8" width="3.4" height="3.4"/>
      <path class="cls-4" d="M74.28,711.8h2.13c.71,0,1.27.58,1.27,1.27v2.13h-3.4v-3.4h0Z"/>
      <path class="cls-4" d="M81.08,715.18v-1.27c0,.71-.58,1.27-1.27,1.27"/>
      <path class="cls-4" d="M78.95,715.18c-.71,0-1.27-.58-1.27-1.27v1.27"/>
      <rect class="cls-4" x="81.08" y="711.8" width="3.4" height="3.4"/>
      <rect class="cls-4" x="84.48" y="711.8" width="3.4" height="3.4"/>
      <rect class="cls-4" x="87.88" y="711.8" width="3.4" height="3.4"/>
      <rect class="cls-4" x="91.28" y="711.8" width="3.4" height="3.4"/>
      <rect class="cls-4" x="94.66" y="711.8" width="3.4" height="3.4"/>
      <path class="cls-4" d="M100.2,715.18h-2.13v-3.4h3.4v2.13c0,.71-.58,1.27-1.27,1.27h0Z"/>
      <rect class="cls-4" x="53.9" y="715.18" width="3.4" height="3.4"/>
      <rect class="cls-4" x="57.3" y="715.18" width="3.4" height="3.4"/>
      <path class="cls-4" d="M64.1,717.31v-.84c0-.71-.58-1.27-1.27-1.27h-2.13v3.4h2.13c.71,0,1.27-.58,1.27-1.27v-.02Z"/>
      <path class="cls-4" d="M66.21,715.18c.71,0,1.27.58,1.27,1.27v-1.27"/>
      <rect class="cls-4" x="67.5" y="715.18" width="3.4" height="3.4"/>
      <path class="cls-4" d="M70.88,715.18v1.27c0-.71.58-1.27,1.27-1.27"/>
      <path class="cls-4" d="M73.01,715.18c.71,0,1.27.58,1.27,1.27v-1.27"/>
      <path class="cls-4" d="M74.28,718.58v-1.27c0,.71-.58,1.27-1.27,1.27"/>
      <path class="cls-4" d="M72.17,718.58c-.71,0-1.27-.58-1.27-1.27v1.27"/>
      <rect class="cls-4" x="74.28" y="715.18" width="3.4" height="3.4"/>
      <rect class="cls-4" x="77.68" y="715.18" width="3.4" height="3.4"/>
      <path class="cls-4" d="M83.22,718.58h-2.13v-3.4h3.4v2.13c0,.71-.58,1.27-1.27,1.27h0Z"/>
      <path class="cls-4" d="M84.48,715.18v1.27c0-.71.58-1.27,1.27-1.27"/>
      <path class="cls-4" d="M86.59,715.18c.71,0,1.27.58,1.27,1.27v-1.27"/>
      <path class="cls-4" d="M87.88,716.47v.84c0,.71.58,1.27,1.27,1.27h.84c.71,0,1.27-.58,1.27-1.27v-2.13h-3.4v1.27l.02.02Z"/>
      <path class="cls-4" d="M91.28,715.18v1.27c0-.71.58-1.27,1.27-1.27"/>
      <path class="cls-4" d="M93.4,715.18c.71,0,1.27.58,1.27,1.27v-1.27"/>
      <rect class="cls-4" x="94.66" y="715.18" width="3.4" height="3.4"/>
      <path class="cls-4" d="M98.06,715.18v1.27c0-.71.58-1.27,1.27-1.27"/>
      <path class="cls-4" d="M104.86,716.47v.84c0,.71.58,1.27,1.27,1.27h2.13v-3.4h-2.13c-.71,0-1.27.58-1.27,1.27v.02Z"/>
      <path class="cls-4" d="M108.27,715.18h2.13c.71,0,1.27.58,1.27,1.27v2.13h-3.4v-3.4h0Z"/>
      <rect class="cls-4" x="53.9" y="718.58" width="3.4" height="3.4"/>
      <rect class="cls-4" x="57.3" y="718.58" width="3.4" height="3.4"/>
      <path class="cls-4" d="M60.7,718.58v1.27c0-.71.58-1.27,1.27-1.27"/>
      <rect class="cls-4" x="67.5" y="718.58" width="3.4" height="3.4"/>
      <rect class="cls-4" x="70.88" y="718.58" width="3.4" height="3.4"/>
      <rect class="cls-4" x="74.28" y="718.58" width="3.4" height="3.4"/>
      <path class="cls-4" d="M77.68,718.58v1.27c0-.71.58-1.27,1.27-1.27"/>
      <path class="cls-4" d="M94.66,721.98v-1.27c0,.71-.58,1.27-1.27,1.27"/>
      <rect class="cls-4" x="94.66" y="718.58" width="3.4" height="3.4"/>
      <path class="cls-4" d="M99.35,721.98c-.71,0-1.27-.58-1.27-1.27v1.27"/>
      <rect class="cls-4" x="101.46" y="718.58" width="3.4" height="3.4" rx=".39" ry=".39"/>
      <path class="cls-4" d="M107,718.58c.71,0,1.27.58,1.27,1.27v-1.27"/>
      <path class="cls-4" d="M108.27,719.87v.84c0,.71.58,1.27,1.27,1.27h.84c.71,0,1.27-.58,1.27-1.27v-2.13h-3.4v1.27l.02.02Z"/>
      <rect class="cls-4" x="53.9" y="721.98" width="3.4" height="3.4"/>
      <path class="cls-4" d="M59.43,725.38h-2.13v-3.4h3.4v2.13c0,.71-.58,1.27-1.27,1.27h0Z"/>
      <rect class="cls-4" x="67.5" y="721.98" width="3.4" height="3.4"/>
      <path class="cls-4" d="M70.88,721.98v1.27c0-.71.58-1.27,1.27-1.27"/>
      <path class="cls-4" d="M73.01,721.98c.71,0,1.27.58,1.27,1.27v-1.27"/>
      <path class="cls-4" d="M74.28,725.38v-1.27c0,.71-.58,1.27-1.27,1.27"/>
      <path class="cls-4" d="M72.17,725.38c-.71,0-1.27-.58-1.27-1.27v1.27"/>
      <rect class="cls-4" x="74.28" y="721.98" width="3.4" height="3.4"/>
      <path class="cls-4" d="M78.95,725.38c-.71,0-1.27-.58-1.27-1.27v1.27"/>
      <path class="cls-4" d="M81.08,723.27v.84c0,.71.58,1.27,1.27,1.27h2.13v-3.4h-2.13c-.71,0-1.27.58-1.27,1.27v.02Z"/>
      <rect class="cls-4" x="84.48" y="721.98" width="3.4" height="3.4"/>
      <rect class="cls-4" x="87.88" y="721.98" width="3.4" height="3.4"/>
      <rect class="cls-4" x="91.28" y="721.98" width="3.4" height="3.4"/>
      <rect class="cls-4" x="94.66" y="721.98" width="3.4" height="3.4"/>
      <path class="cls-4" d="M101.46,724.11v-.84c0-.71-.58-1.27-1.27-1.27h-2.13v3.4h2.13c.71,0,1.27-.58,1.27-1.27v-.02Z"/>
      <path class="cls-4" d="M104.86,725.38v-1.27c0,.71-.58,1.27-1.27,1.27"/>
      <path class="cls-4" d="M107,721.98h-.84c-.71,0-1.27.58-1.27,1.27v2.13h3.4v-2.13c0-.71-.58-1.27-1.27-1.27h-.02Z"/>
      <path class="cls-4" d="M109.53,725.38c-.71,0-1.27-.58-1.27-1.27v1.27"/>
      <path class="cls-4" d="M53.9,726.65v.84c0,.71.58,1.27,1.27,1.27h.84c.71,0,1.27-.58,1.27-1.27v-2.13h-3.4v1.27l.02.02Z"/>
      <path class="cls-4" d="M57.3,725.38v1.27c0-.71.58-1.27,1.27-1.27"/>
      <rect class="cls-4" x="60.7" y="725.38" width="3.4" height="3.4" rx=".39" ry=".39"/>
      <path class="cls-4" d="M68.77,728.78h2.13v-3.4h-3.4v2.13c0,.71.58,1.27,1.27,1.27h0Z"/>
      <rect class="cls-4" x="70.88" y="725.38" width="3.4" height="3.4"/>
      <rect class="cls-4" x="74.28" y="725.38" width="3.4" height="3.4"/>
      <path class="cls-4" d="M81.08,727.51v-.84c0-.71-.58-1.27-1.27-1.27h-2.13v3.4h2.13c.71,0,1.27-.58,1.27-1.27v-.02Z"/>
      <path class="cls-4" d="M101.46,726.65v.84c0,.71.58,1.27,1.27,1.27h2.13v-3.4h-2.13c-.71,0-1.27.58-1.27,1.27v.02Z"/>
      <rect class="cls-4" x="104.86" y="725.38" width="3.4" height="3.4"/>
      <path class="cls-4" d="M111.67,727.51v-.84c0-.71-.58-1.27-1.27-1.27h-2.13v3.4h2.13c.71,0,1.27-.58,1.27-1.27v-.02Z"/>
      <path class="cls-4" d="M27.45,643.83c-.4,0-.73.33-.73.73v22.34c0,.4.33.73.73.73h22.34c.4,0,.73-.33.73-.73v-22.34c0-.4-.33-.73-.73-.73h-22.34ZM47.1,650.63v13.18c0,.22-.18.42-.42.42h-16.16c-.22,0-.42-.18-.42-.42v-16.16c0-.22.18-.42.42-.42h16.16c.22,0,.42.18.42.42v2.98Z"/>
      <path class="cls-4" d="M43.72,657.43v-6.07c0-.4-.33-.73-.73-.73h-8.76c-.4,0-.73.33-.73.73v8.76c0,.4.33.73.73.73h8.76c.4,0,.73-.33.73-.73v-2.69Z"/>
      <path class="cls-4" d="M88.59,643.83c-.4,0-.73.33-.73.73v22.34c0,.4.33.73.73.73h22.34c.4,0,.73-.33.73-.73v-22.34c0-.4-.33-.73-.73-.73h-22.34ZM108.27,650.63v13.18c0,.22-.18.42-.42.42h-16.16c-.22,0-.42-.18-.42-.42v-16.16c0-.22.18-.42.42-.42h16.16c.22,0,.42.18.42.42v2.98Z"/>
      <path class="cls-4" d="M104.86,657.43v-6.07c0-.4-.33-.73-.73-.73h-8.76c-.4,0-.73.33-.73.73v8.76c0,.4.33.73.73.73h8.76c.4,0,.73-.33.73-.73v-2.69Z"/>
      <path class="cls-4" d="M27.45,705c-.4,0-.73.33-.73.73v22.34c0,.4.33.73.73.73h22.34c.4,0,.73-.33.73-.73v-22.34c0-.4-.33-.73-.73-.73h-22.34ZM47.1,711.8v13.18c0,.22-.18.42-.42.42h-16.16c-.22,0-.42-.18-.42-.42v-16.16c0-.22.18-.42.42-.42h16.16c.22,0,.42.18.42.42v2.98h0Z"/>
      <path class="cls-4" d="M43.72,718.58v-6.07c0-.4-.33-.73-.73-.73h-8.76c-.4,0-.73.33-.73.73v8.76c0,.4.33.73.73.73h8.76c.4,0,.73-.33.73-.73v-2.69Z"/>
    </g>
    <g>
      <g class="cls-5">
        <text class="cls-3" transform="translate(146.18 655.3)"><tspan x="0" y="0">@od.elibet</tspan><tspan class="cls-18" x="50.19" y="0">h</tspan><tspan x="55.97" y="0">villalobos</tspan></text>
      </g>
      <path class="cls-2" d="M132.38,655.23c2.18,0,3.96-1.78,3.96-3.96s-1.78-3.96-3.96-3.96-3.96,1.78-3.96,3.96,1.78,3.96,3.96,3.96ZM132.38,653.92c1.44,0,2.64-1.18,2.64-2.64s-1.18-2.64-2.64-2.64-2.64,1.18-2.64,2.64,1.18,2.64,2.64,2.64Z"/>
      <path class="cls-4" d="M136.34,646.65c-.36,0-.67.29-.67.67s.29.67.67.67.67-.29.67-.67-.29-.67-.67-.67Z"/>
      <path class="cls-2" d="M125.56,646.19c-.42.84-.42,1.96-.42,4.16v1.84c0,2.22,0,3.31.42,4.16.38.73.98,1.36,1.73,1.73.84.42,1.96.42,4.16.42h1.84c2.22,0,3.31,0,4.16-.42.73-.38,1.36-.98,1.73-1.73.42-.84.42-1.96.42-4.16v-1.84c0-2.22,0-3.31-.42-4.16-.38-.73-.98-1.36-1.73-1.73-.84-.42-1.96-.42-4.16-.42h-1.84c-2.22,0-3.31,0-4.16.42-.73.38-1.36.98-1.73,1.73ZM133.29,645.34h-1.84c-1.13,0-1.89,0-2.49.04-.58.04-.87.13-1.09.24-.49.24-.89.67-1.16,1.16-.11.2-.2.51-.24,1.09-.04.6-.04,1.36-.04,2.49v1.84c0,1.13,0,1.89.04,2.49.04.58.13.87.24,1.09.24.49.67.89,1.16,1.16.2.11.51.2,1.09.24.6.04,1.36.04,2.49.04h1.84c1.13,0,1.89,0,2.49-.04.58-.04.87-.13,1.09-.24.49-.24.89-.67,1.16-1.16.11-.2.2-.51.24-1.09.04-.6.04-1.36.04-2.49v-1.84c0-1.13,0-1.89-.04-2.49-.04-.58-.13-.87-.24-1.09-.24-.49-.67-.89-1.16-1.16-.2-.11-.51-.2-1.09-.24-.6-.04-1.36-.04-2.49-.04Z"/>
    </g>
    <g>
      <g class="cls-5">
        <text class="cls-3" transform="translate(147.23 696.93)"><tspan x="0" y="0">info@odelibet</tspan><tspan class="cls-15" x="64.82" y="0">h</tspan><tspan x="70.6" y="0">villalobos</tspan></text>
      </g>
      <path class="cls-19" d="M125.71,691.44c1.16,1.31,3.6,2.22,6.45,2.22s5.29-.91,6.45-2.22M125.71,691.44v4.93c0,.8,0,1.2.16,1.51.13.27.36.49.62.62.31.16.71.16,1.51.16h8.31c.8,0,1.2,0,1.51-.16.27-.13.49-.36.62-.62.16-.31.16-.71.16-1.51v-4.93M125.71,691.44v-.51c0-.8,0-1.2.16-1.51.13-.27.36-.49.62-.62.31-.16.71-.16,1.51-.16h8.31c.8,0,1.2,0,1.51.16.27.13.49.36.62.62.16.31.16.71.16,1.51v.51"/>
    </g>
    <g>
      <g class="cls-5">
        <text class="cls-1" transform="translate(146.59 675.71)"><tspan x="0" y="0">+58 412 853 0414</tspan></text>
      </g>
      <path class="cls-2" d="M126.8,667.06c.89-.89,2.33-.73,3.09.27l.91,1.22c.6.8.56,1.93-.16,2.64l-.18.18s-.02.09,0,.22c.04.29.29.93,1.33,1.96,1.04,1.02,1.67,1.29,1.98,1.33h.22l.29-.29c.64-.62,1.62-.76,2.4-.33l1.4.76c1.2.64,1.49,2.27.51,3.25l-1.02,1.02c-.33.33-.76.6-1.29.64-1.31.13-4.38-.04-7.6-3.25-3-3-3.58-5.6-3.67-6.89h.56-.56c-.04-.64.27-1.2.67-1.58l1.13-1.13-.02-.02ZM129.03,667.99c-.38-.49-1.04-.53-1.44-.16l-1.13,1.13c-.24.24-.36.51-.33.76.07,1.02.53,3.38,3.33,6.18,2.96,2.93,5.69,3.02,6.73,2.93.22,0,.42-.13.62-.33l1.02-1.02c.42-.42.33-1.18-.27-1.51l-1.4-.76c-.38-.2-.82-.13-1.11.13l-.33.33-.38-.38.38.38h0l-.02.02s-.04.04-.07.04c-.07.04-.13.09-.22.11-.2.07-.47.11-.78.07-.62-.09-1.47-.53-2.58-1.62-1.11-1.11-1.53-1.93-1.64-2.56-.04-.31,0-.58.07-.78l.11-.22s.04-.04.04-.07l.02-.02h0s.13.13.38.38l-.38-.38.2-.2c.31-.31.36-.82.07-1.22l-.91-1.22.02-.02Z"/>
    </g>
    <g>
      <g class="cls-5">
        <text class="cls-3" transform="translate(148.08 716.42)"><tspan class="cls-6" x="0" y="0">ww</tspan><tspan class="cls-8" x="15.78" y="0">w</tspan><tspan x="22.67" y="0">.odelibet</tspan><tspan class="cls-18" x="64.3" y="0">h</tspan><tspan x="70.08" y="0">villalobos.com</tspan></text>
      </g>
      <g>
        <path class="cls-2" d="M131.54,720.27c-3.6,0-6.53-2.91-6.53-6.49s2.93-6.49,6.53-6.49,6.53,2.91,6.53,6.49-2.93,6.49-6.53,6.49h0ZM131.56,708.04c-3.16,0-5.73,2.58-5.73,5.73s2.58,5.73,5.73,5.73,5.73-2.58,5.73-5.73-2.58-5.73-5.73-5.73h0Z"/>
        <rect class="cls-4" x="131.09" y="707.84" width=".8" height="12.29"/>
        <rect class="cls-4" x="125.25" y="713.33" width="12.18" height=".8"/>
        <rect class="cls-4" x="126.07" y="710.71" width="10.82" height=".8"/>
        <rect class="cls-4" x="126.07" y="715.96" width="10.82" height=".8"/>
        <path class="cls-2" d="M131.38,720.25c-2.27-1.11-3.73-3.67-3.73-6.49s1.42-5.29,3.6-6.42l.4.78c-1.91,1-3.13,3.2-3.13,5.65s1.27,4.73,3.25,5.71l-.38.78h0Z"/>
        <path class="cls-2" d="M131.76,720.13l-.4-.78c1.87-1,3.07-3.22,3.07-5.67s-1.18-4.62-3.02-5.62l.42-.76c2.11,1.16,3.47,3.67,3.47,6.4s-1.38,5.29-3.53,6.42h0Z"/>
      </g>
    </g>
  </g>
  <g>
    <g id="Texto_Elibeth_Villalobos" data-name="Texto Elibeth Villalobos">
      <text class="cls-16" transform="translate(440.04 49.12)"><tspan x="0" y="0">Elibeth Villalobos</tspan></text>
    </g>
    <g id="Texto_Elibeth_Villalobos-2" data-name="Texto Elibeth Villalobos">
      <text class="cls-17" transform="translate(440.58 60.15)"><tspan x="0" y="0">Odontologa</tspan></text>
    </g>
    <g id="Logo_Principal-2" data-name="Logo Principal">
      <path class="cls-20" d="M419.54,51.44s-2.74-4.88-7.64,1.62c0,0-2.24,2.64-4.53,6.82-.3.54-.43.81-.7,1.2-.07.11-.73,1.27-1.74.13,0,0-4.43-4.34-6.64-10.12,0,0-1.81-3.11-2.89-11.46,0,0-1.24-11.12,2.4-17.4,1.22-2.11,2.83-2.43,5.27-2.4,2.16.03,3.2.13,6.3,1.37,0,0,6,2.67,10.63-.53,0,0,6.1-4.9,11.28-.2,0,0-4.95-3.8-10.59.7,0,0-3.31,3.45-11.03,1.3,0,0-8.79-3.58-10.59.21,0,0-6.78,9.29.37,28.5,0,0,3.69,8.02,6.2,9.75.09.06.22.04.27-.06.68-1.21,4.89-8.41,7.5-10.45,0,0,3.98-3.36,6.12,1.03Z"/>
      <path class="cls-12" d="M433.78,22.8c.17.86,3.84,19.74-10.22,37.46,0,0,.51-20.82.01-26.16,0-.04,0-.08-.01-.12-.02-.17-.11-.3-.24-.4-.18-.11-.34-.17-.52-.17h-.03c-.43,0-1.98,1.43-6.64,5.6-.53.48-1.08.84-1.34,1.03-.14.11-.26.17-.36.17s-.16-.1-.16-.3.91-1.71,1.62-2.92c.71-1.21.96-1.66.92-2.2-.03-.59-.36-.68-.58-.68-.48,0-.43-.03-1.63.91v.02s-.06.03-.08.06c-1.92,1.66-3.98,3.13-6.18,4.43-1.14.66-2.2.98-3.19.98s-1.48-.47-1.48-1.41v-.42c4.37-2.66,5.98-4.21,6.12-5.78,0-.8-.37-1.27-1.07-1.2-.36.03-1.48.03-3.43,1.91-1.52,1.47-2.21,3.1-2.44,4.62-1.71.81-2.42,2.56-2.63,4.24-.24,1.98.17,4.18.93,6.01.54,1.29,1.03,1.74,1.14,1.83-.52-.58-.81-1.86-.81-1.86-1.92-7.42.53-9.09,1.29-9.41-.02.14-.02.3-.02.44,0,1.26.63,1.89,1.92,1.89,1.6,0,2.42-.33,4.39-1.56,1.77-1.11,3.81-2.59,6.37-4.67.01-.01.02-.01.02-.01.1-.07.2-.11.3-.09.1.02.07.2.03.33-.03.12-.48,1.06-1.46,2.78-.97,1.73-1.44,2.7-1.44,2.91s.06.41.19.58c.12.17.31.26.56.26s.4-.17.92-.62c4.13-3.59,5.39-4.92,6.21-5.61.26-.22,1.53-1.39,1.83-1.24l.16,26.45c.89.89,1.93-.42,1.93-.42,1.43-1.94,4.17-6.73,5.28-8.72.32-.58.62-1.16.88-1.77,1.29-3.01,2.32-5.94,2.92-8.13.41-1.56.7-3.16.86-4.75,1-10.69-.63-13.97-.83-14.3ZM405.83,34.06c.98-1.06,1.79-1.58,2.41-1.58.31,0,.48.19.48.58s-.3,1.33-1.24,2.27c-.94.92-2.27,1.7-3.63,2.52.34-1.33,1-2.73,1.99-3.79Z"/>
    </g>
  </g>
</svg>