<?xml version="1.0" encoding="UTF-8"?>
<svg id="Capa_2" data-name="Capa 2" xmlns="http://www.w3.org/2000/svg" xmlns:xlink="http://www.w3.org/1999/xlink" viewBox="0 0 26.91 26.91">
  <defs>
    <style>
      .cls-1 {
        fill: #d67b84;
      }

      .cls-2 {
        fill: url(#Degradado_sin_nombre_2);
      }

      .cls-3 {
        fill: url(#Degradado_sin_nombre_2-2);
      }
    </style>
    <linearGradient id="Degradado_sin_nombre_2" data-name="Degradado sin nombre 2" x1="4.65" y1="13.64" x2="20.67" y2="13.64" gradientUnits="userSpaceOnUse">
      <stop offset="0" stop-color="#f3b2c1"/>
      <stop offset="1" stop-color="#f8e8e8"/>
    </linearGradient>
    <linearGradient id="Degradado_sin_nombre_2-2" data-name="Degradado sin nombre 2" x1="6.84" y1="14.5" x2="22.29" y2="14.5" xlink:href="#Degradado_sin_nombre_2"/>
  </defs>
  <g id="Capa_5" data-name="Capa 5">
    <g>
      <path class="cls-1" d="M4.93,0h16.69c2.92,0,5.29,2.37,5.29,5.29v16.69c0,2.72-2.21,4.93-4.93,4.93H4.93c-2.72,0-4.93-2.21-4.93-4.93V4.93C0,2.21,2.21,0,4.93,0Z"/>
      <g id="Logo_Principal" data-name="Logo Principal">
        <path class="cls-2" d="M15.46,18.69s-1.22-2.17-3.39.72c0,0-.99,1.17-2.01,3.03-.13.24-.19.36-.31.53-.03.05-.32.57-.77.06,0,0-1.97-1.93-2.95-4.49,0,0-.8-1.38-1.28-5.09,0,0-.55-4.94,1.07-7.73.54-.94,1.26-1.08,2.34-1.07.96.01,1.42.06,2.8.61,0,0,2.66,1.18,4.72-.23,0,0,2.71-2.18,5.01-.09,0,0-2.2-1.69-4.7.31,0,0-1.47,1.53-4.9.58,0,0-3.9-1.59-4.7.09,0,0-3.01,4.12.16,12.65,0,0,1.64,3.56,2.75,4.33.04.03.1.02.12-.03.3-.54,2.17-3.73,3.33-4.64,0,0,1.77-1.49,2.72.46Z"/>
        <path class="cls-3" d="M21.78,5.98c.07.38,1.71,8.76-4.54,16.63,0,0,.23-9.24,0-11.62,0-.02,0-.03,0-.05,0-.07-.05-.13-.11-.18-.08-.05-.15-.07-.23-.07h-.01c-.19,0-.88.64-2.95,2.49-.24.21-.48.37-.6.46-.06.05-.11.07-.16.07s-.07-.04-.07-.13.4-.76.72-1.3c.32-.54.42-.73.41-.98-.01-.26-.16-.3-.26-.3-.21,0-.19-.01-.73.4h0s-.02.02-.03.03c-.85.73-1.77,1.39-2.74,1.97-.51.29-.98.43-1.42.43s-.66-.21-.66-.63v-.19c1.94-1.18,2.65-1.87,2.72-2.56,0-.36-.16-.56-.47-.53-.16.01-.66.01-1.52.85-.68.65-.98,1.38-1.09,2.05-.76.36-1.08,1.13-1.17,1.88-.11.88.07,1.85.41,2.67.24.57.46.77.51.81-.23-.26-.36-.82-.36-.82-.85-3.29.24-4.03.57-4.18,0,.06,0,.13,0,.2,0,.56.28.84.85.84.71,0,1.08-.15,1.95-.69.78-.49,1.69-1.15,2.83-2.07,0,0,0,0,0,0,.04-.03.09-.05.13-.04.04,0,.03.09.01.15-.01.05-.21.47-.65,1.23-.43.77-.64,1.2-.64,1.29s.02.18.08.26c.05.07.14.11.25.11s.18-.07.41-.28c1.83-1.59,2.39-2.18,2.76-2.49.11-.1.68-.62.81-.55l.07,11.74c.39.39.86-.19.86-.19.64-.86,1.85-2.99,2.34-3.87.14-.26.28-.51.39-.78.57-1.34,1.03-2.64,1.3-3.61.18-.69.31-1.4.38-2.11.44-4.74-.28-6.2-.37-6.35ZM9.37,10.97c.43-.47.79-.7,1.07-.7.14,0,.21.08.21.26s-.13.59-.55,1.01c-.42.41-1.01.75-1.61,1.12.15-.59.44-1.21.88-1.68Z"/>
      </g>
    </g>
  </g>
</svg>