<?xml version="1.0" encoding="UTF-8"?>
<svg id="Capa_2" data-name="Capa 2" xmlns="http://www.w3.org/2000/svg" xmlns:xlink="http://www.w3.org/1999/xlink" viewBox="0 0 25.76 28.06">
  <defs>
    <style>
      .cls-1 {
        fill: url(#Degradado_sin_nombre_6);
      }

      .cls-2 {
        fill: url(#Degradado_sin_nombre_5);
      }
    </style>
    <linearGradient id="Degradado_sin_nombre_5" data-name="Degradado sin nombre 5" x1="4.94" y1="5.99" x2="22.65" y2="21.28" gradientUnits="userSpaceOnUse">
      <stop offset="0" stop-color="#d58e92"/>
      <stop offset="1" stop-color="#ba5e63"/>
    </linearGradient>
    <linearGradient id="Degradado_sin_nombre_6" data-name="Degradado sin nombre 6" x1="7.06" y1="5.29" x2="24.37" y2="19.75" gradientUnits="userSpaceOnUse">
      <stop offset="0" stop-color="#d58e92"/>
      <stop offset="1" stop-color="#ba5e63"/>
    </linearGradient>
  </defs>
  <g id="Capa_5" data-name="Capa 5">
    <g id="Logo_Principal" data-name="Logo Principal">
      <path class="cls-2" d="M15.78,21.41s-1.78-3.17-4.95,1.05c0,0-1.45,1.71-2.93,4.42-.19.35-.28.52-.46.78-.05.07-.47.83-1.13.09,0,0-2.87-2.82-4.31-6.56,0,0-1.17-2.01-1.87-7.43,0,0-.8-7.21,1.56-11.28.79-1.37,1.84-1.58,3.42-1.56,1.4.02,2.08.09,4.08.89,0,0,3.89,1.73,6.89-.34,0,0,3.95-3.18,7.32-.13,0,0-3.21-2.47-6.87.45,0,0-2.15,2.23-7.15.84,0,0-5.7-2.32-6.87.13,0,0-4.4,6.02.24,18.48,0,0,2.39,5.2,4.02,6.32.06.04.14.02.18-.04.44-.79,3.17-5.45,4.86-6.78,0,0,2.58-2.18,3.97.67Z"/>
      <path class="cls-1" d="M25.01,2.84c.11.55,2.49,12.8-6.63,24.29,0,0,.33-13.5,0-16.96,0-.03,0-.05,0-.08-.01-.11-.07-.19-.16-.26-.12-.07-.22-.11-.34-.11h-.02c-.28,0-1.28.93-4.31,3.63-.35.31-.7.55-.87.67-.09.07-.17.11-.23.11s-.1-.06-.1-.19.59-1.11,1.05-1.89c.46-.79.62-1.07.6-1.43-.02-.38-.23-.44-.37-.44-.31,0-.28-.02-1.06.59h0s-.03.04-.04.05c-1.25,1.07-2.58,2.03-4.01,2.87-.74.42-1.43.63-2.07.63s-.96-.3-.96-.91v-.27c2.83-1.72,3.88-2.73,3.97-3.75,0-.52-.24-.82-.69-.78-.23.02-.96.02-2.23,1.24-.99.95-1.43,2.01-1.58,3-1.11.53-1.57,1.66-1.71,2.75-.16,1.28.11,2.71.61,3.9.35.84.67,1.13.74,1.19-.34-.37-.53-1.2-.53-1.2-1.25-4.81.35-5.89.84-6.1-.01.09-.01.19-.01.29,0,.81.41,1.22,1.25,1.22,1.04,0,1.57-.22,2.85-1.01,1.15-.72,2.47-1.68,4.13-3.03,0,0,.01,0,.01,0,.06-.04.13-.07.19-.06.06.01.04.13.02.22-.02.08-.31.68-.94,1.8-.63,1.12-.94,1.75-.94,1.89s.04.27.12.37c.08.11.2.17.36.17s.26-.11.6-.4c2.68-2.33,3.49-3.19,4.03-3.64.17-.14.99-.9,1.19-.81l.1,17.15c.58.58,1.25-.27,1.25-.27.93-1.26,2.7-4.37,3.42-5.65.21-.37.4-.75.57-1.15.84-1.95,1.51-3.85,1.89-5.27.27-1.01.45-2.05.55-3.08.65-6.93-.41-9.05-.54-9.27ZM6.89,10.14c.63-.68,1.16-1.02,1.56-1.02.2,0,.31.12.31.37s-.19.86-.81,1.47c-.61.6-1.47,1.1-2.36,1.64.22-.86.65-1.77,1.29-2.46Z"/>
    </g>
  </g>
</svg>